STARTFONT 2.3
FONT -FontForge-Courgette-Book-R-Normal--18-180-72-72-P-93-ISO10646-1
SIZE 18 72 72  2
FONTBOUNDINGBOX 24 23 -4 -5
COMMENT "Generated by fontforge, http://fontforge.sourceforge.net"
COMMENT "Copyright (c) 2012, Sorkin Type Co (www.sorkintype.com) with Reserved Font Name "Courgette"."
STARTPROPERTIES 41
FOUNDRY "FontForge"
FAMILY_NAME "Courgette"
WEIGHT_NAME "Book"
SLANT "R"
SETWIDTH_NAME "Normal"
ADD_STYLE_NAME ""
PIXEL_SIZE 18
POINT_SIZE 180
RESOLUTION_X 72
RESOLUTION_Y 72
SPACING "P"
AVERAGE_WIDTH 93
CHARSET_REGISTRY "ISO10646"
CHARSET_ENCODING "1"
FONTNAME_REGISTRY ""
CHARSET_COLLECTIONS "ISO8859-2 ISO8859-9 ISO8859-4 ISO10646-1"
BITS_PER_PIXEL 2
FONT_NAME "Courgette-Regular"
FACE_NAME "Courgette Regular"
COPYRIGHT "Copyright (c) 2012, Sorkin Type Co (www.sorkintype.com) with Reserved Font Name "Courgette"."
FONT_VERSION "1.002"
FONT_ASCENT 14
FONT_DESCENT 4
UNDERLINE_POSITION -2
UNDERLINE_THICKNESS 1
X_HEIGHT 8
CAP_HEIGHT 13
DEFAULT_CHAR 1
RAW_ASCENT 799
RAW_DESCENT 200
NORM_SPACE 6
RELATIVE_WEIGHT 40
RELATIVE_SETWIDTH 50
SUPERSCRIPT_X 0
SUPERSCRIPT_Y 8
SUPERSCRIPT_SIZE 11
SUBSCRIPT_X 0
SUBSCRIPT_Y 2
SUBSCRIPT_SIZE 11
AVG_LOWERCASE_WIDTH 89
AVG_UPPERCASE_WIDTH 105
ENDPROPERTIES
CHARS 407
STARTCHAR .null.dup1
ENCODING 0
SWIDTH 0 0
DWIDTH 0 0
BBX 1 1 0 0
BITMAP
00
ENDCHAR
STARTCHAR uni0001
ENCODING 1
SWIDTH 0 0
DWIDTH 0 0
BBX 1 1 0 0
BITMAP
00
ENDCHAR
STARTCHAR uni0002
ENCODING 2
SWIDTH 0 0
DWIDTH 0 0
BBX 1 1 0 0
BITMAP
00
ENDCHAR
STARTCHAR uni0003
ENCODING 3
SWIDTH 0 0
DWIDTH 0 0
BBX 1 1 0 0
BITMAP
00
ENDCHAR
STARTCHAR uni0004
ENCODING 4
SWIDTH 0 0
DWIDTH 0 0
BBX 1 1 0 0
BITMAP
00
ENDCHAR
STARTCHAR uni0005
ENCODING 5
SWIDTH 0 0
DWIDTH 0 0
BBX 1 1 0 0
BITMAP
00
ENDCHAR
STARTCHAR uni0006
ENCODING 6
SWIDTH 0 0
DWIDTH 0 0
BBX 1 1 0 0
BITMAP
00
ENDCHAR
STARTCHAR uni0007
ENCODING 7
SWIDTH 0 0
DWIDTH 0 0
BBX 1 1 0 0
BITMAP
00
ENDCHAR
STARTCHAR uni0008
ENCODING 8
SWIDTH 0 0
DWIDTH 0 0
BBX 1 1 0 0
BITMAP
00
ENDCHAR
STARTCHAR uni0009
ENCODING 9
SWIDTH 0 0
DWIDTH 0 0
BBX 1 1 0 0
BITMAP
00
ENDCHAR
STARTCHAR nonmarkingreturn
ENCODING 13
SWIDTH 0 0
DWIDTH 0 0
BBX 1 1 0 0
BITMAP
00
ENDCHAR
STARTCHAR uni0015
ENCODING 21
SWIDTH 0 0
DWIDTH 0 0
BBX 1 1 0 0
BITMAP
00
ENDCHAR
STARTCHAR uni0016
ENCODING 22
SWIDTH 0 0
DWIDTH 0 0
BBX 1 1 0 0
BITMAP
00
ENDCHAR
STARTCHAR uni0017
ENCODING 23
SWIDTH 0 0
DWIDTH 0 0
BBX 1 1 0 0
BITMAP
00
ENDCHAR
STARTCHAR uni0018
ENCODING 24
SWIDTH 0 0
DWIDTH 0 0
BBX 1 1 0 0
BITMAP
00
ENDCHAR
STARTCHAR uni0019
ENCODING 25
SWIDTH 0 0
DWIDTH 0 0
BBX 1 1 0 0
BITMAP
00
ENDCHAR
STARTCHAR space
ENCODING 32
SWIDTH 307 0
DWIDTH 6 0
BBX 1 1 0 0
BITMAP
00
ENDCHAR
STARTCHAR exclam
ENCODING 33
SWIDTH 417 0
DWIDTH 8 0
BBX 7 14 1 0
BITMAP
002C
00B8
01F0
02E0
03C0
0780
0B00
0E00
0D00
0C00
0000
7C00
BD00
2400
ENDCHAR
STARTCHAR quotedbl
ENCODING 34
SWIDTH 437 0
DWIDTH 8 0
BBX 7 5 2 10
BITMAP
1514
3D7C
78B4
70A0
5080
ENDCHAR
STARTCHAR numbersign
ENCODING 35
SWIDTH 725 0
DWIDTH 13 0
BBX 12 14 1 0
BITMAP
00091C
002D38
002C74
0034B0
0070E0
2FFFFE
01D280
01C380
02C340
BFFFF4
070E00
0A0D00
0D1C00
182400
ENDCHAR
STARTCHAR dollar
ENCODING 36
SWIDTH 545 0
DWIDTH 10 0
BBX 10 19 1 -3
BITMAP
0001D0
000380
007F40
02D2C0
0B41D0
0F01D0
1E03D0
1F0F80
1F4A00
0BC000
07D000
01F000
60F000
E0B000
F4E000
7F4000
280000
340000
100000
ENDCHAR
STARTCHAR percent
ENCODING 37
SWIDTH 876 0
DWIDTH 16 0
BBX 14 14 1 0
BITMAP
07E00280
1D740B40
38741D00
B4B47800
B0F0F000
72D2C000
2F4B4000
001D1B80
007879D0
00E0E1D0
02C1D2D0
0B42C3C0
1D01DB40
3400BD00
ENDCHAR
STARTCHAR ampersand
ENCODING 38
SWIDTH 563 0
DWIDTH 10 0
BBX 11 14 0 0
BITMAP
006F90
01F470
07C074
0F41F0
0F07D0
0E0240
0BA400
07E400
1F4000
3D2FE0
780E00
780D00
3D6800
1BE000
ENDCHAR
STARTCHAR quotesingle
ENCODING 39
SWIDTH 231 0
DWIDTH 4 0
BBX 4 5 2 10
BITMAP
15
3D
78
70
50
ENDCHAR
STARTCHAR parenleft
ENCODING 40
SWIDTH 478 0
DWIDTH 9 0
BBX 9 21 2 -4
BITMAP
000140
000B40
002C00
00B000
02D000
078000
0F0000
1D0000
3C0000
780000
B40000
B40000
F00000
F00000
F00000
F00000
B00000
740000
380000
2D0000
0B0000
ENDCHAR
STARTCHAR parenright
ENCODING 41
SWIDTH 478 0
DWIDTH 9 0
BBX 9 21 -2 -4
BITMAP
001400
002D00
000F00
000740
000380
0003C0
0003C0
0003C0
0003C0
0003C0
000780
000740
000B00
000E00
002D00
007800
00B000
02D000
074000
1D0000
A40000
ENDCHAR
STARTCHAR asterisk
ENCODING 42
SWIDTH 518 0
DWIDTH 9 0
BBX 7 7 2 7
BITMAP
01D0
13C0
7764
2FF8
1F80
75D0
5090
ENDCHAR
STARTCHAR plus
ENCODING 43
SWIDTH 617 0
DWIDTH 11 0
BBX 9 9 1 2
BITMAP
009000
00D000
00D000
00D000
BFFFC0
00D000
00D000
00D000
00C000
ENDCHAR
STARTCHAR comma
ENCODING 44
SWIDTH 312 0
DWIDTH 6 0
BBX 4 5 0 -3
BITMAP
2C
3D
2C
34
90
ENDCHAR
STARTCHAR hyphen
ENCODING 45
SWIDTH 452 0
DWIDTH 8 0
BBX 6 1 1 5
BITMAP
7FE0
ENDCHAR
STARTCHAR period
ENCODING 46
SWIDTH 270 0
DWIDTH 5 0
BBX 4 3 0 0
BITMAP
7C
BD
24
ENDCHAR
STARTCHAR slash
ENCODING 47
SWIDTH 405 0
DWIDTH 7 0
BBX 13 19 -2 -3
BITMAP
00000340
00000B00
00001D00
00003800
0000B000
0000E000
0002C000
00074000
000B0000
001D0000
00380000
00740000
00E00000
02C00000
03400000
0B000000
1D000000
28000000
70000000
ENDCHAR
STARTCHAR zero
ENCODING 48
SWIDTH 621 0
DWIDTH 11 0
BBX 11 14 1 0
BITMAP
001F90
00B4B0
02D0B0
0B80B4
0F00B0
2D00F0
3C01E0
7802D0
B403C0
B00B80
B00F00
B02D00
74B400
2F9000
ENDCHAR
STARTCHAR one
ENCODING 49
SWIDTH 405 0
DWIDTH 7 0
BBX 7 14 1 0
BITMAP
00B0
07F4
1FF0
14F0
01E0
02D0
03C0
0740
0B00
0E00
1C00
3800
7000
9000
ENDCHAR
STARTCHAR two
ENCODING 50
SWIDTH 524 0
DWIDTH 9 0
BBX 10 14 0 0
BITMAP
006F40
02D2D0
0780D0
0B41E0
0BC2D0
0247C0
001F40
007D00
01F400
07D000
0E0000
280100
BBFF00
A5BD00
ENDCHAR
STARTCHAR three
ENCODING 51
SWIDTH 537 0
DWIDTH 10 0
BBX 10 14 0 0
BITMAP
006F80
01E1E0
0380E0
0780F0
0BC1E0
0247D0
001F40
00FD00
00AD00
001E00
2C1E00
782D00
38B800
1F9000
ENDCHAR
STARTCHAR four
ENCODING 52
SWIDTH 529 0
DWIDTH 10 0
BBX 9 14 1 0
BITMAP
034000
07C000
078000
0B4400
0F0B00
2D0F00
381E00
B02D00
E03F40
7FF500
00E000
01D000
028000
060000
ENDCHAR
STARTCHAR five
ENCODING 53
SWIDTH 540 0
DWIDTH 10 0
BBX 11 14 0 0
BITMAP
007AA8
00BBF8
01E050
02C000
038000
07BE00
0F4B80
050780
000780
040B80
380F40
742E00
38B800
1F9000
ENDCHAR
STARTCHAR six
ENCODING 54
SWIDTH 554 0
DWIDTH 10 0
BBX 10 14 1 0
BITMAP
002F80
01E5D0
07C2D0
0F47C0
1E0100
3D0000
7DB800
BE5E00
BC0B00
B80F00
B41E00
B02D00
74B400
1F9000
ENDCHAR
STARTCHAR seven
ENCODING 55
SWIDTH 473 0
DWIDTH 9 0
BBX 8 13 2 1
BITMAP
BFFE
7E9E
0038
00B0
02D0
0780
0F00
1D00
3C00
7800
B400
F000
B000
ENDCHAR
STARTCHAR eight
ENCODING 56
SWIDTH 524 0
DWIDTH 9 0
BBX 9 14 1 0
BITMAP
01BD00
079B40
0E0780
0E03C0
1E0780
0F0B40
0BAD00
07E000
1FE000
78B400
E07400
E03400
F4A000
2F8000
ENDCHAR
STARTCHAR nine
ENCODING 57
SWIDTH 554 0
DWIDTH 10 0
BBX 9 14 1 0
BITMAP
00BE00
078780
0F03C0
2D03C0
3D03C0
3C0780
3C0F80
2D2F40
1FEF00
001E00
102C00
F07400
E1D000
7E4000
ENDCHAR
STARTCHAR colon
ENCODING 58
SWIDTH 312 0
DWIDTH 6 0
BBX 5 9 0 0
BITMAP
0500
0F80
0B40
0000
0000
0000
3D00
7D00
2800
ENDCHAR
STARTCHAR semicolon
ENCODING 59
SWIDTH 312 0
DWIDTH 6 0
BBX 5 11 0 -3
BITMAP
0B80
0F80
0640
0000
0000
0000
2C00
3D00
2C00
3400
9000
ENDCHAR
STARTCHAR less
ENCODING 60
SWIDTH 637 0
DWIDTH 11 0
BBX 9 10 1 1
BITMAP
0001C0
001B80
00B900
07D000
7E0000
7D0000
0B8000
01F800
001F40
0002C0
ENDCHAR
STARTCHAR equal
ENCODING 61
SWIDTH 617 0
DWIDTH 11 0
BBX 10 4 1 5
BITMAP
7FFFD0
000000
000000
7FFFC0
ENDCHAR
STARTCHAR greater
ENCODING 62
SWIDTH 606 0
DWIDTH 11 0
BBX 9 10 1 1
BITMAP
B40000
2E4000
06E000
007D00
000BC0
001B80
00B900
07D000
6D0000
A00000
ENDCHAR
STARTCHAR question
ENCODING 63
SWIDTH 516 0
DWIDTH 9 0
BBX 9 14 1 0
BITMAP
00BE00
03D340
074380
078780
011F40
007E00
01F400
07D000
0F0000
0D0000
040000
680000
BD0000
780000
ENDCHAR
STARTCHAR at
ENCODING 64
SWIDTH 905 0
DWIDTH 16 0
BBX 15 14 1 -2
BITMAP
001AFA40
00B506E0
07400074
0D069928
382D7D2C
74B4382C
B0F0B438
E1E0F070
E1E2A1D0
E0B97E40
F0000000
78000000
2E405000
06FF8000
ENDCHAR
STARTCHAR A
ENCODING 65
SWIDTH 615 0
DWIDTH 11 0
BBX 14 14 -2 0
BITMAP
000006E0
00002ED0
0000B6C0
0001D380
00074740
000A0B00
001D0E00
007EFFC0
02FABE40
00D03C00
02C07800
07407800
1E007800
78002E00
ENDCHAR
STARTCHAR B
ENCODING 66
SWIDTH 551 0
DWIDTH 10 0
BBX 10 14 1 0
BITMAP
0AFE40
7E42D0
2640E0
0B81E0
1F02E0
2E07C0
3C6F00
7FF800
B52D00
F00E00
E01E00
D02D00
E1B400
7F8000
ENDCHAR
STARTCHAR C
ENCODING 67
SWIDTH 533 0
DWIDTH 10 0
BBX 10 14 1 0
BITMAP
002F80
01F4A0
07C0B0
0F41E0
2E07D0
3C0B80
780100
B40000
F00000
F00000
F00000
F00400
786C00
1FE400
ENDCHAR
STARTCHAR D
ENCODING 68
SWIDTH 630 0
DWIDTH 11 0
BBX 11 14 1 0
BITMAP
1BFE40
3E42D0
0140B4
07C078
0B4078
1F0078
2E00B4
3C00F0
7802E0
B407C0
F00F40
F07D00
E2F400
7E4000
ENDCHAR
STARTCHAR E
ENCODING 69
SWIDTH 509 0
DWIDTH 9 0
BBX 11 14 0 0
BITMAP
001BE0
00F834
03D074
0781F0
0B43D0
0F0140
0B0000
03F800
0BD000
2F0000
3D0000
780600
3C2D00
1BE400
ENDCHAR
STARTCHAR F
ENCODING 70
SWIDTH 518 0
DWIDTH 9 0
BBX 11 14 0 0
BITMAP
0BE508
2FFFF8
382C00
103800
007400
00B000
00FA40
07FF80
07D000
07C000
0B4000
0F0000
2D0000
740000
ENDCHAR
STARTCHAR G
ENCODING 71
SWIDTH 598 0
DWIDTH 11 0
BBX 10 14 1 0
BITMAP
002F80
00F4A0
07D0B0
0F41F0
2E07D0
3D0B80
780100
B40000
F03FE0
F01F80
F00D00
F01C00
787400
1F9000
ENDCHAR
STARTCHAR H
ENCODING 72
SWIDTH 668 0
DWIDTH 12 0
BBX 14 14 -1 0
BITMAP
02F800D0
027C01E0
003C02D0
007803C0
00B40780
00F00B40
01FAFF80
07D01D00
03C02C00
07803800
0B407800
1E00B400
3C00B500
74007D00
ENDCHAR
STARTCHAR I
ENCODING 73
SWIDTH 327 0
DWIDTH 6 0
BBX 7 14 0 0
BITMAP
0BE0
05B4
00F0
00F0
01E0
02E0
03D0
03C0
0B80
0F00
1E00
2C00
B400
E000
ENDCHAR
STARTCHAR J
ENCODING 74
SWIDTH 393 0
DWIDTH 7 0
BBX 11 19 -3 -5
BITMAP
001BE0
00BD78
00A0B8
0000B4
0000F0
0001F0
0002E0
0003D0
0007C0
000B80
001F00
002E00
003D00
00B800
01F000
02D000
0B8000
2E0000
F40000
ENDCHAR
STARTCHAR K
ENCODING 75
SWIDTH 616 0
DWIDTH 11 0
BBX 13 14 -1 0
BITMAP
07E00B40
06780780
00780B80
00B40F40
00F42D00
00F0B800
01E2D000
02EA0000
03FD0000
079F0000
0F4B8000
1E03D000
7C01F400
B4007E00
ENDCHAR
STARTCHAR L
ENCODING 76
SWIDTH 517 0
DWIDTH 9 0
BBX 11 14 -1 0
BITMAP
0002E4
000F5C
002D1C
00782C
00B4B8
01F2F0
02E2D0
03D000
078000
0B4000
0F0000
1D0500
7EFFC0
3E96D0
ENDCHAR
STARTCHAR M
ENCODING 77
SWIDTH 931 0
DWIDTH 17 0
BBX 19 14 -2 0
BITMAP
00001F0078
0000BF02F8
0001DE07B4
00076D0DB0
000A3C29E0
001D7876D0
003878A3C0
0074B4D3C0
00E0F28780
02C0F34B40
0380EA0F00
0B00EC0F00
2D00F80B10
B400A007E0
ENDCHAR
STARTCHAR N
ENCODING 78
SWIDTH 708 0
DWIDTH 13 0
BBX 14 14 0 0
BITMAP
001E02D0
007E02F0
00FD01F0
02DD01E0
036D01D0
0B1D02C0
0E1E0340
1D1E0B00
2C0F0D00
380F5C00
740B7400
B007F000
B002E000
6001D000
ENDCHAR
STARTCHAR O
ENCODING 79
SWIDTH 655 0
DWIDTH 12 0
BBX 11 14 1 0
BITMAP
001BE0
00B474
03D03C
0B802C
1F003C
3D003C
7C0078
B800B4
B401F0
F002D0
F00780
B01F00
787C00
1FE000
ENDCHAR
STARTCHAR P
ENCODING 80
SWIDTH 553 0
DWIDTH 10 0
BBX 12 14 -1 0
BITMAP
006FE4
02F41D
03C00B
01280B
00780F
00B42E
00F0BC
02E7E0
03FE40
078000
0B4000
1E0000
3C0000
740000
ENDCHAR
STARTCHAR Q
ENCODING 81
SWIDTH 655 0
DWIDTH 12 0
BBX 12 17 1 -3
BITMAP
002FD0
01F474
07C038
0F403C
2E003C
3C0078
7800B4
7401F0
B402D0
B80780
7C1F00
187C00
06E000
1FF800
006E00
000BD1
0001BE
ENDCHAR
STARTCHAR R
ENCODING 82
SWIDTH 623 0
DWIDTH 11 0
BBX 13 14 -1 0
BITMAP
006FE400
03E41E00
01580B00
003C0B40
00780F00
00F42E00
01F1B800
02FBD000
03EE0000
07CB4000
0B47C000
1E02D000
2D01F400
74007D00
ENDCHAR
STARTCHAR S
ENCODING 83
SWIDTH 474 0
DWIDTH 9 0
BBX 10 14 0 0
BITMAP
006F40
01E1D0
0780A0
0B40E0
0F02E0
0F4BC0
0B8240
07D000
02F000
00F400
207800
B47400
78A000
2F8000
ENDCHAR
STARTCHAR T
ENCODING 84
SWIDTH 471 0
DWIDTH 8 0
BBX 11 14 1 0
BITMAP
2FA414
BFFFE0
B07800
50B400
00F000
01E000
02D000
03C000
078000
0B4000
0F0000
1E0000
3C0000
A00000
ENDCHAR
STARTCHAR U
ENCODING 85
SWIDTH 624 0
DWIDTH 11 0
BBX 13 14 0 0
BITMAP
01E00740
01F00B40
01E01E00
02D02D00
03C07C00
0780B800
0F41F400
1E02F000
2D07E000
3C0AE000
781AD000
B462C000
B582D400
3E01F400
ENDCHAR
STARTCHAR V
ENCODING 86
SWIDTH 587 0
DWIDTH 11 0
BBX 12 14 1 0
BITMAP
1B801D
7FE01F
15E00F
02D01E
07C03D
0B40B8
1F01E0
2D07C0
3C1F00
787800
74E000
B78000
7E0000
280000
ENDCHAR
STARTCHAR W
ENCODING 87
SWIDTH 941 0
DWIDTH 17 0
BBX 17 14 1 0
BITMAP
2F80000740
7FD0000B80
11D00007C0
03D02D07C0
0780BC0780
0F42F40780
1E0BE00B40
2D1FD00F00
3C77C01D00
74E3803C00
B6C780B400
B74781D000
B903874000
3801F80000
ENDCHAR
STARTCHAR X
ENCODING 88
SWIDTH 552 0
DWIDTH 10 0
BBX 14 14 -1 0
BITMAP
001C02E0
003C0B80
007C2D00
00787400
003DE000
003E8000
002F0000
002D0000
007E0000
00FE0000
02CF0000
0B4B8000
2D03E800
B401F400
ENDCHAR
STARTCHAR Y
ENCODING 89
SWIDTH 580 0
DWIDTH 10 0
BBX 13 19 0 -5
BITMAP
02E00740
01F00B00
01E01E00
02D02D00
03C07C00
0B80B800
0F41F400
1E02F000
2D07E000
3C0ED000
781A8000
B4674000
B58B0000
7E1D0000
002C0000
00B40000
01D00000
0B800000
3D000000
ENDCHAR
STARTCHAR Z
ENCODING 90
SWIDTH 501 0
DWIDTH 9 0
BBX 11 14 0 0
BITMAP
0905B4
0BFFF8
02E5F4
0002D0
000B80
002E00
00B800
02E000
078000
1E0000
380000
B5A900
FFFF40
F90640
ENDCHAR
STARTCHAR bracketleft
ENCODING 91
SWIDTH 396 0
DWIDTH 7 0
BBX 10 19 0 -3
BITMAP
000B90
001E00
002D00
003C00
007800
00B400
00F000
01E000
02D000
03C000
078000
0B4000
0F0000
1D0000
2C0000
380000
740000
B40000
FD0000
ENDCHAR
STARTCHAR backslash
ENCODING 92
SWIDTH 464 0
DWIDTH 8 0
BBX 6 19 1 -3
BITMAP
D000
E000
B000
7000
3400
3800
2C00
1C00
0D00
0E00
0B00
0700
0340
0380
02C0
01C0
00D0
00E0
0060
ENDCHAR
STARTCHAR bracketright
ENCODING 93
SWIDTH 394 0
DWIDTH 7 0
BBX 10 19 -1 -3
BITMAP
000BD0
0002D0
0003C0
000740
000B00
000E00
001D00
002C00
003800
007400
00B000
00E000
01D000
02C000
038000
074000
0B0000
1E0000
BD0000
ENDCHAR
STARTCHAR asciicircum
ENCODING 94
SWIDTH 540 0
DWIDTH 10 0
BBX 8 8 2 6
BITMAP
0340
07C0
0FD0
2DB0
3874
B028
D00D
4004
ENDCHAR
STARTCHAR underscore
ENCODING 95
SWIDTH 530 0
DWIDTH 10 0
BBX 12 1 -3 -3
BITMAP
BFFFFE
ENDCHAR
STARTCHAR grave
ENCODING 96
SWIDTH 219 0
DWIDTH 4 0
BBX 3 4 0 10
BITMAP
38
78
38
1C
ENDCHAR
STARTCHAR a
ENCODING 97
SWIDTH 541 0
DWIDTH 10 0
BBX 10 10 0 -1
BITMAP
00B9E0
0787D0
0F07C0
2D0B40
3C0F00
781E00
783D00
78EE40
2E4F80
000100
ENDCHAR
STARTCHAR b
ENCODING 98
SWIDTH 525 0
DWIDTH 9 0
BBX 9 15 0 0
BITMAP
01D000
01D000
02D000
03C000
078000
074000
0B6E00
0ED780
1F4780
2E0780
3C0B80
780F00
742E00
39B800
1F9000
ENDCHAR
STARTCHAR c
ENCODING 99
SWIDTH 465 0
DWIDTH 8 0
BBX 8 9 0 0
BITMAP
00BE
0787
1F0B
2D1E
3C08
7800
7804
3C28
1BE0
ENDCHAR
STARTCHAR d
ENCODING 100
SWIDTH 557 0
DWIDTH 10 0
BBX 12 15 0 0
BITMAP
00000E
00002D
00003C
000078
0000B4
0000F0
00BEE0
02D3D0
0B43C0
1E0780
3C0B40
3C1F40
782F00
3CAF00
1F87D0
ENDCHAR
STARTCHAR e
ENCODING 101
SWIDTH 471 0
DWIDTH 8 0
BBX 8 9 0 0
BITMAP
00BD
078B
0F0B
2D1F
3DBD
7F90
7800
3C1C
1BE4
ENDCHAR
STARTCHAR f
ENCODING 102
SWIDTH 393 0
DWIDTH 7 0
BBX 11 17 -1 -2
BITMAP
0006E0
000E78
002D38
003CB4
007860
00B400
00F000
07FF40
0AD000
03C000
078000
074000
0B0000
0E0000
2D0000
3C0000
740000
ENDCHAR
STARTCHAR g
ENCODING 103
SWIDTH 526 0
DWIDTH 9 0
BBX 10 14 0 -5
BITMAP
00BD40
0787D0
0F03C0
2D0780
3C0B40
781F00
783E00
38BD00
1F6C00
003800
00B400
01E000
078000
2E0000
ENDCHAR
STARTCHAR h
ENCODING 104
SWIDTH 555 0
DWIDTH 10 0
BBX 10 15 0 0
BITMAP
00A000
00F000
00F000
01E000
02D000
03C000
038B80
076FD0
0B72C0
0E8780
1F4B40
3D0F00
781E00
B41D40
A00F80
ENDCHAR
STARTCHAR i
ENCODING 105
SWIDTH 286 0
DWIDTH 5 0
BBX 6 14 0 0
BITMAP
02E0
02E0
0180
0000
0000
0B40
0B40
0B00
0E00
2D00
3800
7400
7E00
3D00
ENDCHAR
STARTCHAR j
ENCODING 106
SWIDTH 281 0
DWIDTH 5 0
BBX 9 19 -3 -5
BITMAP
000F00
001F40
000500
000000
000000
003D00
002D00
002D00
003C00
007800
007400
00B000
00E000
02D000
03C000
074000
0E0000
280000
E00000
ENDCHAR
STARTCHAR k
ENCODING 107
SWIDTH 497 0
DWIDTH 9 0
BBX 9 15 0 0
BITMAP
00A000
00F000
00E000
01E000
02D000
03C000
038780
0743C0
0B0B80
0E7D00
1FD000
3ED000
79E000
B4BA40
A02E00
ENDCHAR
STARTCHAR l
ENCODING 108
SWIDTH 279 0
DWIDTH 5 0
BBX 6 15 0 0
BITMAP
00D0
01E0
01E0
02D0
03C0
0780
0740
0B00
0E00
1D00
2C00
3800
7800
7600
2D00
ENDCHAR
STARTCHAR m
ENCODING 109
SWIDTH 814 0
DWIDTH 15 0
BBX 14 9 0 0
BITMAP
0B4782D0
0B6FCBF0
0B75E8E0
0FD2E2D0
1F47C3C0
2D0B4740
781E0B00
B42D0B90
A0280780
ENDCHAR
STARTCHAR n
ENCODING 110
SWIDTH 561 0
DWIDTH 10 0
BBX 10 9 0 0
BITMAP
0B4B80
0B6FD0
0BB2D0
0FD3C0
1F4B80
2D0F00
781E00
B41E00
A00B80
ENDCHAR
STARTCHAR o
ENCODING 111
SWIDTH 514 0
DWIDTH 9 0
BBX 9 9 0 0
BITMAP
00BE00
078B40
0F0780
2D0780
3C0B40
781F00
782D00
38B800
1F9000
ENDCHAR
STARTCHAR p
ENCODING 112
SWIDTH 550 0
DWIDTH 10 0
BBX 11 14 -1 -5
BITMAP
078BD0
03E8F0
03E0B4
07C0F0
0B40F0
0B02D0
0F0780
1F5F00
2DF800
380000
780000
B40000
F00000
D00000
ENDCHAR
STARTCHAR q
ENCODING 113
SWIDTH 533 0
DWIDTH 10 0
BBX 10 14 0 -5
BITMAP
00BD40
03D7E0
0F03D0
2D07C0
3C0B40
381F00
782E00
38AD00
1F6C00
003800
007400
00B000
00B000
007000
ENDCHAR
STARTCHAR r
ENCODING 114
SWIDTH 407 0
DWIDTH 7 0
BBX 8 9 0 0
BITMAP
0F0B
0F7F
0FA6
0E80
1F00
2D00
3C00
B400
7000
ENDCHAR
STARTCHAR s
ENCODING 115
SWIDTH 423 0
DWIDTH 8 0
BBX 8 9 0 0
BITMAP
02F8
0E1E
1E1D
0F40
0B80
03D0
61E0
B5D0
6F40
ENDCHAR
STARTCHAR t
ENCODING 116
SWIDTH 358 0
DWIDTH 6 0
BBX 7 12 1 0
BITMAP
0140
03C0
0780
3FF4
1E00
2D00
3C00
7800
7400
B040
BA80
3E00
ENDCHAR
STARTCHAR u
ENCODING 117
SWIDTH 553 0
DWIDTH 10 0
BBX 10 9 0 0
BITMAP
0B40E0
0B82E0
0B43C0
0F0B80
2E1F40
3C2F00
78AE00
B69E00
7D0F80
ENDCHAR
STARTCHAR v
ENCODING 118
SWIDTH 510 0
DWIDTH 9 0
BBX 9 9 0 0
BITMAP
0B4780
0B87C0
0B43C0
0E0380
2D0740
3C0E00
782C00
79A000
2E4000
ENDCHAR
STARTCHAR w
ENCODING 119
SWIDTH 750 0
DWIDTH 14 0
BBX 14 9 0 0
BITMAP
0F404380
0B43C3D0
0B4782D0
0E0F02C0
1D2E0380
2C7D0700
39DD0D00
7F1E7800
380BD000
ENDCHAR
STARTCHAR x
ENCODING 120
SWIDTH 467 0
DWIDTH 8 0
BBX 10 9 -1 0
BITMAP
01C1B0
03C780
03CE00
03E800
02F000
01E000
07F000
1E7800
742E00
ENDCHAR
STARTCHAR y
ENCODING 121
SWIDTH 549 0
DWIDTH 10 0
BBX 10 14 0 -5
BITMAP
0B40A0
0781E0
0B43D0
0F07C0
2E0F80
3D2F40
786B00
799E00
3E2D00
003800
007400
01E000
078000
2E0000
ENDCHAR
STARTCHAR z
ENCODING 122
SWIDTH 430 0
DWIDTH 8 0
BBX 8 9 0 0
BITMAP
0A5B
06AF
003D
01F4
07D0
1F00
7C00
BBF4
B968
ENDCHAR
STARTCHAR braceleft
ENCODING 123
SWIDTH 424 0
DWIDTH 8 0
BBX 9 19 1 -3
BITMAP
000B80
002D00
003C00
007800
00B400
00F000
01E000
02D000
078000
3E0000
2C0000
1D0000
2D0000
3C0000
780000
B40000
F00000
F00000
B80000
ENDCHAR
STARTCHAR bar
ENCODING 124
SWIDTH 306 0
DWIDTH 6 0
BBX 2 19 2 -3
BITMAP
60
B0
B0
B0
B0
B0
B0
B0
B0
B0
B0
B0
B0
B0
B0
B0
B0
B0
A0
ENDCHAR
STARTCHAR braceright
ENCODING 125
SWIDTH 424 0
DWIDTH 8 0
BBX 9 19 -1 -3
BITMAP
000F40
000780
000780
000740
000B00
001E00
002D00
002C00
001D00
002F00
00F400
02D000
03C000
078000
074000
0B0000
0F0000
2D0000
F80000
ENDCHAR
STARTCHAR asciitilde
ENCODING 126
SWIDTH 624 0
DWIDTH 11 0
BBX 10 4 1 5
BITMAP
0A8020
3FE060
A1F490
807E40
ENDCHAR
STARTCHAR nonbreakingspace
ENCODING 160
SWIDTH 293 0
DWIDTH 5 0
BBX 1 1 0 0
BITMAP
00
ENDCHAR
STARTCHAR exclamdown
ENCODING 161
SWIDTH 417 0
DWIDTH 8 0
BBX 7 15 0 -4
BITMAP
0064
00FC
00B8
0000
0180
0380
0B00
0E00
1E00
3D00
3C00
7800
7800
7400
1000
ENDCHAR
STARTCHAR cent
ENCODING 162
SWIDTH 487 0
DWIDTH 9 0
BBX 8 14 1 0
BITMAP
000A
001C
0038
02ED
0F0E
2D2D
7C28
7800
B400
B404
7874
2FD0
1D00
1800
ENDCHAR
STARTCHAR sterling
ENCODING 163
SWIDTH 665 0
DWIDTH 12 0
BBX 13 14 -1 0
BITMAP
00002F40
0000F5C0
0002D1C0
0007C2C0
000B4B80
000F1F00
001E0900
01BFD000
017C0000
00780000
1BF00000
75F90600
73DFFE00
2E42F800
ENDCHAR
STARTCHAR currency
ENCODING 164
SWIDTH 572 0
DWIDTH 10 0
BBX 10 12 1 0
BITMAP
024050
0341E0
03FB80
079B00
1F0B40
2D0B40
3C1F00
382D00
3CB800
7BB800
901C00
000400
ENDCHAR
STARTCHAR yen
ENCODING 165
SWIDTH 583 0
DWIDTH 11 0
BBX 12 14 1 0
BITMAP
78001E
AE00BD
0F01F4
0743D0
038B40
029E00
01EC00
01F400
2FFE00
06E400
02D000
7FFC00
078000
074000
ENDCHAR
STARTCHAR brokenbar
ENCODING 166
SWIDTH 292 0
DWIDTH 5 0
BBX 2 19 2 -3
BITMAP
A0
E0
E0
E0
E0
E0
E0
D0
00
00
00
A0
E0
E0
E0
E0
E0
E0
D0
ENDCHAR
STARTCHAR section
ENCODING 167
SWIDTH 583 0
DWIDTH 11 0
BBX 11 18 0 -4
BITMAP
000B90
003D74
00B428
00F478
00B5F4
007C40
01FD00
0B5F00
0E0F40
1E0780
0F0380
0B8780
07EE00
02F400
20F000
B0B000
B0E000
7F8000
ENDCHAR
STARTCHAR dieresis
ENCODING 168
SWIDTH 412 0
DWIDTH 7 0
BBX 8 3 0 11
BITMAP
2D2D
7D7D
1414
ENDCHAR
STARTCHAR copyright
ENCODING 169
SWIDTH 871 0
DWIDTH 16 0
BBX 14 14 1 0
BITMAP
001BF800
01E41B40
078002C0
0E06E0E0
2C2E34B0
347834B0
70F0F0B0
B0E090A0
B1E000E0
70E081C0
747F8740
2C001E00
0B41B800
01BF9000
ENDCHAR
STARTCHAR ordfeminine
ENCODING 170
SWIDTH 564 0
DWIDTH 10 0
BBX 8 8 2 5
BITMAP
02E6
1E6E
3C2D
743C
F074
E0F4
E2B0
7D7D
ENDCHAR
STARTCHAR guillemotleft
ENCODING 171
SWIDTH 662 0
DWIDTH 12 0
BBX 10 7 1 2
BITMAP
009060
0782D0
2E1E00
B47C00
3C2D00
1F0B40
0742C0
ENDCHAR
STARTCHAR logicalnot
ENCODING 172
SWIDTH 729 0
DWIDTH 13 0
BBX 11 6 1 1
BITMAP
7FFFF4
000038
000034
000074
000074
000010
ENDCHAR
STARTCHAR uni00AD
ENCODING 173
SWIDTH 833 0
DWIDTH 15 0
BBX 1 1 0 0
BITMAP
00
ENDCHAR
STARTCHAR registered
ENCODING 174
SWIDTH 742 0
DWIDTH 13 0
BBX 12 11 1 3
BITMAP
006F90
029068
0A6F4D
28A2CA
3472C7
70BE06
70ED0A
71CB1C
394178
1E01E0
06FE40
ENDCHAR
STARTCHAR macron
ENCODING 175
SWIDTH 392 0
DWIDTH 7 0
BBX 7 1 1 11
BITMAP
7FF4
ENDCHAR
STARTCHAR degree
ENCODING 176
SWIDTH 405 0
DWIDTH 7 0
BBX 6 6 2 8
BITMAP
1B90
78E0
B0E0
E1E0
E2C0
7E40
ENDCHAR
STARTCHAR plusminus
ENCODING 177
SWIDTH 617 0
DWIDTH 11 0
BBX 9 12 1 0
BITMAP
009000
00D000
00D000
00D000
BFFFC0
00D000
00D000
00D000
00C000
000000
000000
BFFFC0
ENDCHAR
STARTCHAR twosuperior
ENCODING 178
SWIDTH 458 0
DWIDTH 8 0
BBX 8 9 1 5
BITMAP
02F8
0B1D
0E1E
0B2D
00B8
02E0
1F40
7C10
7AF0
ENDCHAR
STARTCHAR threesuperior
ENCODING 179
SWIDTH 430 0
DWIDTH 8 0
BBX 8 10 1 4
BITMAP
02F8
071D
0A1D
062D
01F4
03E0
10B0
74F0
B1D0
2E40
ENDCHAR
STARTCHAR acute
ENCODING 180
SWIDTH 322 0
DWIDTH 6 0
BBX 4 5 2 10
BITMAP
04
1D
2D
78
D0
ENDCHAR
STARTCHAR mu
ENCODING 181
SWIDTH 618 0
DWIDTH 11 0
BBX 12 14 -1 -5
BITMAP
00741D
00F02D
02E078
03C0F4
0782F0
0F47E0
1F0ED0
2FB5E8
3FD0B4
380000
740000
740000
B00000
700000
ENDCHAR
STARTCHAR paragraph
ENCODING 182
SWIDTH 739 0
DWIDTH 13 0
BBX 15 15 0 -1
BITMAP
0001ABFC
001FF5E0
00BFE1E0
01FFD2D0
02FFC3C0
01FF8380
00FF8740
001F4B00
000F0E00
001E1D00
002D2C00
1D3C3800
7C747400
74E0A000
3F81C000
ENDCHAR
STARTCHAR periodcentered
ENCODING 183
SWIDTH 353 0
DWIDTH 6 0
BBX 3 3 2 4
BITMAP
B8
BC
64
ENDCHAR
STARTCHAR cedilla
ENCODING 184
SWIDTH 301 0
DWIDTH 5 0
BBX 4 5 1 -4
BITMAP
24
0C
1D
7C
74
ENDCHAR
STARTCHAR onesuperior
ENCODING 185
SWIDTH 403 0
DWIDTH 7 0
BBX 6 10 2 4
BITMAP
0280
0BD0
7BC0
1780
0B40
0E00
1D00
3800
7000
4000
ENDCHAR
STARTCHAR ordmasculine
ENCODING 186
SWIDTH 498 0
DWIDTH 9 0
BBX 7 8 2 5
BITMAP
06E0
1E78
382C
B43C
F078
E0B4
E2D0
7F40
ENDCHAR
STARTCHAR guillemotright
ENCODING 187
SWIDTH 665 0
DWIDTH 12 0
BBX 10 7 1 2
BITMAP
381D00
1E0B40
0783D0
02D1E0
0B4780
782D00
906000
ENDCHAR
STARTCHAR onequarter
ENCODING 188
SWIDTH 988 0
DWIDTH 18 0
BBX 15 15 2 0
BITMAP
00000400
07803800
1F80B400
BF80E000
9B42C000
0F074800
1D0A1E00
2C1D2D00
74383C60
A0B0B4B0
80E0E1E0
02C0BFF4
07400780
0E000B00
1D000D00
ENDCHAR
STARTCHAR onehalf
ENCODING 189
SWIDTH 988 0
DWIDTH 18 0
BBX 15 14 2 0
BITMAP
07801C00
0FC07400
7F80E000
AB41D000
0F038000
0E0B0BE0
2C1D2D78
38383C38
70742CB4
D0E002E0
02C00B80
07407D00
0A00F450
1D01FFD0
ENDCHAR
STARTCHAR threequarters
ENCODING 190
SWIDTH 1007 0
DWIDTH 18 0
BBX 17 15 0 0
BITMAP
0000001000
01F800E000
074E02C000
070E074000
062E0B0000
00B81D2000
02E0387400
10B4B0B000
38B4E1E380
75E2C2C380
1E87474740
000A02FF80
001D001C00
0038003800
0060006000
ENDCHAR
STARTCHAR questiondown
ENCODING 191
SWIDTH 516 0
DWIDTH 9 0
BBX 9 14 0 -3
BITMAP
000A00
001F40
001F00
000000
001800
007800
01F400
07D000
2F4000
7C1000
B0B400
E0B400
A1E000
2F8000
ENDCHAR
STARTCHAR Agrave
ENCODING 192
SWIDTH 615 0
DWIDTH 11 0
BBX 14 18 -2 0
BITMAP
00000500
00000F00
00000B80
00000140
000006E0
00002ED0
0000B6C0
0001D380
00074740
000A0B00
001D0E00
007EFFC0
02FABE40
00D03C00
02C07800
07407800
1E007800
78002E00
ENDCHAR
STARTCHAR Aacute
ENCODING 193
SWIDTH 615 0
DWIDTH 11 0
BBX 15 18 -2 0
BITMAP
00000024
00000078
000001E0
00000140
000006E0
00002ED0
0000B6C0
0001D380
00074740
000A0B00
001D0E00
007EFFC0
02FABE40
00D03C00
02C07800
07407800
1E007800
78002E00
ENDCHAR
STARTCHAR Acircumflex
ENCODING 194
SWIDTH 615 0
DWIDTH 11 0
BBX 15 18 -2 0
BITMAP
00000050
000002F0
00001EB4
00001414
000006E0
00002ED0
0000B6C0
0001D380
00074740
000A0B00
001D0E00
007EFFC0
02FABE40
00D03C00
02C07800
07407800
1E007800
78002E00
ENDCHAR
STARTCHAR Atilde
ENCODING 195
SWIDTH 615 0
DWIDTH 11 0
BBX 16 17 -2 0
BITMAP
00001B85
000025F8
00000000
000006E0
00002ED0
0000B6C0
0001D380
00074740
000A0B00
001D0E00
007EFFC0
02FABE40
00D03C00
02C07800
07407800
1E007800
78002E00
ENDCHAR
STARTCHAR Adieresis
ENCODING 196
SWIDTH 615 0
DWIDTH 11 0
BBX 16 17 -2 0
BITMAP
00002D2D
00003D3D
00001414
000006E0
00002ED0
0000B6C0
0001D380
00074740
000A0B00
001D0E00
007EFFC0
02FABE40
00D03C00
02C07800
07407400
1E007E00
78002E00
ENDCHAR
STARTCHAR Aring
ENCODING 197
SWIDTH 615 0
DWIDTH 11 0
BBX 15 18 -2 0
BITMAP
000002E0
00000B78
00000D38
00000E74
00000BF0
00002FE0
0000B6D0
0002D3C0
00078780
000E0B40
002D0F00
01BEFF80
01E03C00
01D03C00
03807800
07407800
1E007800
78002E00
ENDCHAR
STARTCHAR AE
ENCODING 198
SWIDTH 878 0
DWIDTH 16 0
BBX 18 14 -1 0
BITMAP
00001FAFD0
0000B7F470
0002CBD0B0
00074F42E0
000E1F07D0
002C1E0100
00740E0000
00FBFFF400
07FFFFE000
07802E0000
0B007C0000
1E00B40900
7800787D00
E0001FE000
ENDCHAR
STARTCHAR Ccedilla
ENCODING 199
SWIDTH 533 0
DWIDTH 10 0
BBX 10 18 1 -4
BITMAP
002F80
01F4A0
03C0B0
0B41F0
2E07D0
3C0B80
780100
B40000
F40000
F00000
F00000
F00400
786C00
2FE400
0A0000
0A0000
2E0000
380000
ENDCHAR
STARTCHAR Egrave
ENCODING 200
SWIDTH 509 0
DWIDTH 9 0
BBX 11 18 0 0
BITMAP
000500
000F00
000B80
000140
001BE0
00F834
03D074
0781F0
0B43D0
0F0140
0B0000
03F800
0BD000
2F0000
3D0000
780600
3C2D00
1BE400
ENDCHAR
STARTCHAR Eacute
ENCODING 201
SWIDTH 509 0
DWIDTH 9 0
BBX 11 18 0 0
BITMAP
000024
000078
0001E0
000140
001BE0
00F834
03D074
0781F0
0B43D0
0F0140
0B0000
03F800
0BD000
2F0000
3D0000
780600
3C2D00
1BE400
ENDCHAR
STARTCHAR Ecircumflex
ENCODING 202
SWIDTH 509 0
DWIDTH 9 0
BBX 11 18 0 0
BITMAP
000050
0002F0
001EB4
001414
001BE0
00F834
03D074
0781F0
0B43D0
0F0140
0B0000
03F800
0BD000
2F0000
3D0000
780600
3C2D00
1BE400
ENDCHAR
STARTCHAR Edieresis
ENCODING 203
SWIDTH 509 0
DWIDTH 9 0
BBX 12 17 0 0
BITMAP
002D2D
003D3D
001414
001BE0
00F834
03D074
0781F0
0B43D0
0F0140
0B0000
03F800
0BD000
2F0000
3D0000
780600
3C2D00
1BE400
ENDCHAR
STARTCHAR Igrave
ENCODING 204
SWIDTH 327 0
DWIDTH 6 0
BBX 7 18 0 0
BITMAP
0040
01D0
00F4
0014
0BE0
05B4
00F0
00F0
01E0
02E0
03D0
03C0
0B80
0F00
1E00
2C00
B400
E000
ENDCHAR
STARTCHAR Iacute
ENCODING 205
SWIDTH 327 0
DWIDTH 6 0
BBX 9 17 0 0
BITMAP
000B40
000F00
002800
0BE000
05B400
00F000
00F000
01E000
02E000
03D000
03C000
0B8000
0F0000
1E0000
2C0000
B40000
E00000
ENDCHAR
STARTCHAR Icircumflex
ENCODING 206
SWIDTH 327 0
DWIDTH 6 0
BBX 8 18 0 0
BITMAP
0008
007D
02DF
0101
0BE0
05B4
00F0
00F0
01E0
02E0
03D0
03C0
0B80
0F00
1E00
2C00
B400
E000
ENDCHAR
STARTCHAR Idieresis
ENCODING 207
SWIDTH 327 0
DWIDTH 6 0
BBX 9 17 0 0
BITMAP
078780
0BC7C0
024240
0BE000
05B400
00F000
00F000
01E000
02E000
03D000
03C000
0B8000
0F0000
1E0000
2C0000
B40000
E00000
ENDCHAR
STARTCHAR Eth
ENCODING 208
SWIDTH 630 0
DWIDTH 11 0
BBX 12 14 0 0
BITMAP
06FF80
1F81B4
05002C
01F01D
02E01E
03C02D
7FFD2D
6FA43C
1E00B4
2D01F0
3C07C0
381F40
78B800
2F9000
ENDCHAR
STARTCHAR Ntilde
ENCODING 209
SWIDTH 708 0
DWIDTH 13 0
BBX 15 17 0 0
BITMAP
00006D24
00018BD0
00000000
001E02D0
007E02F0
00FD01F0
02DD01E0
036D01D0
0B1D02C0
0E1E0340
1D1E0B00
2C0F0D00
380F5C00
740B7400
B007F000
B002E000
6001D000
ENDCHAR
STARTCHAR Ograve
ENCODING 210
SWIDTH 655 0
DWIDTH 12 0
BBX 11 18 1 0
BITMAP
000100
000780
0003D0
000050
001BE0
00B474
03D03C
0B802C
1F003C
3D003C
7C0078
B800B4
B401F0
F002D0
F00780
B01F00
787C00
1FE000
ENDCHAR
STARTCHAR Oacute
ENCODING 211
SWIDTH 655 0
DWIDTH 12 0
BBX 12 18 1 0
BITMAP
000018
00002D
000078
000050
001BE0
00B474
03D03C
0B802C
1F003C
3D003C
7C0078
B800B4
B401F0
F002D0
F00780
B01F00
787C00
1FE000
ENDCHAR
STARTCHAR Ocircumflex
ENCODING 212
SWIDTH 655 0
DWIDTH 12 0
BBX 12 18 1 0
BITMAP
000020
0001F8
000B6C
000405
001BE0
00B474
03D03C
0B802C
1F003C
3D003C
7C0078
B800B4
B401F0
F002D0
F00780
B01F00
787C00
1FE000
ENDCHAR
STARTCHAR Otilde
ENCODING 213
SWIDTH 655 0
DWIDTH 12 0
BBX 12 17 1 0
BITMAP
000792
0019BD
000000
001BE0
00B474
03D03C
0B802C
1F003C
3D003C
7C0078
B800B4
B401F0
F002D0
F00780
B01F00
787C00
1FE000
ENDCHAR
STARTCHAR Odieresis
ENCODING 214
SWIDTH 655 0
DWIDTH 12 0
BBX 12 17 1 0
BITMAP
001F1F
001F1F
000909
001BE0
00B474
03D03C
0B802C
1F003C
3D003C
7C0078
B800B4
B401F0
F002D0
F00780
B01F00
787C00
1FE000
ENDCHAR
STARTCHAR multiply
ENCODING 215
SWIDTH 573 0
DWIDTH 10 0
BBX 8 7 2 3
BITMAP
D01D
7474
1ED0
0B80
1ED0
7474
D01C
ENDCHAR
STARTCHAR Oslash
ENCODING 216
SWIDTH 655 0
DWIDTH 12 0
BBX 12 17 1 -2
BITMAP
00001E
000BF8
0079BC
01E1ED
07C29E
0B471E
1F0D2D
2D183D
3C307C
38A0B8
78C0F0
7A42D0
7B0B80
2E2E00
2FE400
340000
100000
ENDCHAR
STARTCHAR Ugrave
ENCODING 217
SWIDTH 624 0
DWIDTH 11 0
BBX 13 18 0 0
BITMAP
00010000
00074000
0003D000
00005000
01E00740
01F00B40
01E01E00
02D02D00
03C07C00
0780B800
0F41F400
1E02F000
2D07E000
3C0AE000
781AD000
B462C000
B582D400
3E01F400
ENDCHAR
STARTCHAR Uacute
ENCODING 218
SWIDTH 624 0
DWIDTH 11 0
BBX 13 18 0 0
BITMAP
00001800
00002D00
0000B800
00005000
01E00740
01F00B40
01E01E00
02D02D00
03C07C00
0780B800
0F41F400
1E02F000
2D07E000
3C0AE000
781AD000
B462C000
B582D400
3E01F400
ENDCHAR
STARTCHAR Ucircumflex
ENCODING 219
SWIDTH 624 0
DWIDTH 11 0
BBX 13 18 0 0
BITMAP
00002000
0001F800
000B6C00
00040500
01E00740
01F00B40
01E01E00
02D02D00
03C07C00
0780B800
0F41F400
1E02F000
2D07E000
3C0AE000
781AD000
B462C000
B582D400
3E01F400
ENDCHAR
STARTCHAR Udieresis
ENCODING 220
SWIDTH 624 0
DWIDTH 11 0
BBX 13 17 0 0
BITMAP
001E1F00
001F1F00
00090900
01E00740
01F00B40
01E01E00
02D02D00
03C07C00
0780B800
0F41F400
1E02F000
2D07E000
3C0AE000
781AD000
B462C000
B582D400
3E01F400
ENDCHAR
STARTCHAR Yacute
ENCODING 221
SWIDTH 580 0
DWIDTH 10 0
BBX 13 22 0 -5
BITMAP
00002C00
00007C00
0000E000
02E00740
01F00B00
01E01E00
02D02D00
03C07C00
0B80B800
0F41F400
1E02F000
2D07E000
3C0ED000
781A8000
B4674000
B58B0000
7E1D0000
002C0000
00B40000
01D00000
0B800000
3D000000
ENDCHAR
STARTCHAR Thorn
ENCODING 222
SWIDTH 527 0
DWIDTH 10 0
BBX 11 14 -1 0
BITMAP
07F400
057800
00B800
00B400
00FF90
01F4B4
01E078
02D078
03C1F4
0B9BD0
0FA900
1E0000
7C0000
A00000
ENDCHAR
STARTCHAR germandbls
ENCODING 223
SWIDTH 520 0
DWIDTH 9 0
BBX 11 18 -1 -3
BITMAP
000B90
002D74
007438
00F078
01E0B4
02D1E0
03C780
038B00
078E00
0B4F00
0F0B80
0E03D0
1E61E0
2DB5D0
3C6F40
780000
B40000
500000
ENDCHAR
STARTCHAR agrave
ENCODING 224
SWIDTH 541 0
DWIDTH 10 0
BBX 10 15 0 -1
BITMAP
002C00
003C00
002C00
000D00
000000
00B9E0
0787D0
0F07C0
2D0B40
3C0F00
781E00
783D00
78EE40
2E4F80
000100
ENDCHAR
STARTCHAR aacute
ENCODING 225
SWIDTH 541 0
DWIDTH 10 0
BBX 10 15 0 -1
BITMAP
000380
000780
001E00
002800
000000
00B9E0
0787D0
0F07C0
2D0B40
3C0F00
781E00
783D00
78EE40
2E4F80
000100
ENDCHAR
STARTCHAR acircumflex
ENCODING 226
SWIDTH 541 0
DWIDTH 10 0
BBX 10 15 0 -1
BITMAP
000240
000BC0
007AD0
01D0D0
000000
00B9E0
0787D0
0F07C0
2D0B40
3C0F00
781E00
783D00
78EE40
2E4F80
000100
ENDCHAR
STARTCHAR atilde
ENCODING 227
SWIDTH 541 0
DWIDTH 10 0
BBX 11 15 0 -1
BITMAP
006C14
008E20
0147D0
000000
000000
00B9E0
0787D0
0F07C0
2D0B40
3C0F00
781E00
783D00
78EE40
2E4F80
000100
ENDCHAR
STARTCHAR adieresis
ENCODING 228
SWIDTH 541 0
DWIDTH 10 0
BBX 11 15 0 -1
BITMAP
00F0F0
01F1F4
009050
000000
000000
00B9E0
0787D0
0F07C0
2D0B40
3C0F00
781E00
783D00
78EE40
2E4F80
000100
ENDCHAR
STARTCHAR aring
ENCODING 229
SWIDTH 541 0
DWIDTH 10 0
BBX 10 15 0 -1
BITMAP
001B80
0075D0
0071C0
003F40
000000
00B9E0
0787D0
0F07C0
2D0B40
3C0F00
781E00
783D00
78EE40
2E4F80
000100
ENDCHAR
STARTCHAR ae
ENCODING 230
SWIDTH 769 0
DWIDTH 14 0
BBX 14 9 0 0
BITMAP
00B9EF80
0787E2D0
0F07C2E0
2D0B87D0
3C0F5F40
781FF900
783F0000
78DB4640
2E42FD00
ENDCHAR
STARTCHAR ccedilla
ENCODING 231
SWIDTH 465 0
DWIDTH 8 0
BBX 8 13 0 -4
BITMAP
01BD
078B
1F0B
2D1E
3C08
7800
7804
3C28
1FE0
0700
0740
1F00
1D00
ENDCHAR
STARTCHAR egrave
ENCODING 232
SWIDTH 471 0
DWIDTH 8 0
BBX 8 14 0 0
BITMAP
0074
00B4
0074
0028
0000
00BD
078B
0F0B
2D1F
3DBD
7F90
7800
3C1C
1BE4
ENDCHAR
STARTCHAR eacute
ENCODING 233
SWIDTH 471 0
DWIDTH 8 0
BBX 8 14 0 0
BITMAP
000B
000F
002D
00A0
0000
00BD
078B
0F0B
2D1F
3DBD
7F90
7800
3C1C
1BE4
ENDCHAR
STARTCHAR ecircumflex
ENCODING 234
SWIDTH 471 0
DWIDTH 8 0
BBX 9 14 0 0
BITMAP
000600
001F40
00B740
038280
000000
00BD00
078B00
0F0B00
2D1F00
3DBD00
7F9000
780000
3C1C00
1BE400
ENDCHAR
STARTCHAR edieresis
ENCODING 235
SWIDTH 471 0
DWIDTH 8 0
BBX 10 14 0 0
BITMAP
02D2D0
03D3D0
014140
000000
000000
00BE00
078B00
0E0F00
2D6D00
3EA400
780000
780800
3D2C00
1BE000
ENDCHAR
STARTCHAR igrave
ENCODING 236
SWIDTH 286 0
DWIDTH 5 0
BBX 5 14 0 0
BITMAP
0740
0780
0380
01C0
0000
0B40
0B40
0B00
0E00
2D00
3800
7400
7E00
3D00
ENDCHAR
STARTCHAR iacute
ENCODING 237
SWIDTH 286 0
DWIDTH 5 0
BBX 6 14 0 0
BITMAP
00B0
00F0
02D0
0640
0000
0B40
0B40
0B00
0E00
2D00
3800
7400
7E00
3D00
ENDCHAR
STARTCHAR icircumflex
ENCODING 238
SWIDTH 286 0
DWIDTH 5 0
BBX 7 14 0 0
BITMAP
0060
01F4
0B78
382C
0000
0B40
0B40
0B00
0E00
2D00
3800
7400
7E00
3D00
ENDCHAR
STARTCHAR idieresis
ENCODING 239
SWIDTH 286 0
DWIDTH 5 0
BBX 8 14 0 0
BITMAP
2D2E
3E3E
1818
0000
0000
0B40
0B40
0B00
0E00
2D00
3800
7400
7E00
3D00
ENDCHAR
STARTCHAR eth
ENCODING 240
SWIDTH 524 0
DWIDTH 9 0
BBX 11 15 0 0
BITMAP
000300
000280
0001FC
000BE4
0029D0
0000E0
00BED0
0787D0
0F03C0
2D0780
3C0B40
781E00
782D00
38B400
1F8000
ENDCHAR
STARTCHAR ntilde
ENCODING 241
SWIDTH 561 0
DWIDTH 10 0
BBX 11 14 0 0
BITMAP
006C14
008E20
0147D0
000000
000000
0B4B80
0B6FD0
0BB2D0
0FD3C0
1F4B80
2D0F00
781E00
B41E00
A00B80
ENDCHAR
STARTCHAR ograve
ENCODING 242
SWIDTH 514 0
DWIDTH 9 0
BBX 9 14 0 0
BITMAP
001D00
002D00
001D00
000A00
000000
00BE00
078B40
0F0780
2D0780
3C0B40
781F00
782D00
38B800
1F9000
ENDCHAR
STARTCHAR oacute
ENCODING 243
SWIDTH 514 0
DWIDTH 9 0
BBX 9 14 0 0
BITMAP
0003C0
000780
000F00
002800
000000
00BE00
078B40
0F0780
2D0780
3C0B40
781F00
782D00
38B800
1F9000
ENDCHAR
STARTCHAR ocircumflex
ENCODING 244
SWIDTH 514 0
DWIDTH 9 0
BBX 10 14 0 0
BITMAP
000180
000BC0
006ED0
01E0A0
000000
00BE00
078B40
0F0780
2D0780
3C0B40
781F00
782D00
38B800
1F9000
ENDCHAR
STARTCHAR otilde
ENCODING 245
SWIDTH 514 0
DWIDTH 9 0
BBX 11 14 0 0
BITMAP
002D14
008B24
0147D0
000000
000000
00BE00
078B40
0F0780
2D0780
3C0B40
781F00
782D00
38B800
1F9000
ENDCHAR
STARTCHAR odieresis
ENCODING 246
SWIDTH 514 0
DWIDTH 9 0
BBX 11 14 0 0
BITMAP
00B4B4
01F4F4
005050
000000
000000
00BE00
078B40
0F0780
2D0780
3C0B40
781F00
782D00
38B800
1F9000
ENDCHAR
STARTCHAR divide
ENCODING 247
SWIDTH 617 0
DWIDTH 11 0
BBX 9 9 1 2
BITMAP
00A000
01F000
005000
000000
6AAA80
155540
004000
01F000
01E000
ENDCHAR
STARTCHAR oslash
ENCODING 248
SWIDTH 514 0
DWIDTH 9 0
BBX 10 13 0 -2
BITMAP
000040
0003D0
00BF40
079F40
0F2B80
2D2780
3C8B40
798F00
7A2D00
3DB800
2F9000
340000
100000
ENDCHAR
STARTCHAR ugrave
ENCODING 249
SWIDTH 553 0
DWIDTH 10 0
BBX 10 14 0 0
BITMAP
000E00
001E00
000E00
000700
000000
0B40E0
0B82D0
0B43C0
0F0B80
2D1F00
3C7E00
78DE00
BB5F80
7D0F40
ENDCHAR
STARTCHAR uacute
ENCODING 250
SWIDTH 553 0
DWIDTH 10 0
BBX 10 15 0 0
BITMAP
000040
0001D0
0003D0
000B40
001900
000000
0B40E0
0B82E0
0B43C0
0F0B80
2E1F40
3C2F00
78AE00
B69E00
7D0F80
ENDCHAR
STARTCHAR ucircumflex
ENCODING 251
SWIDTH 553 0
DWIDTH 10 0
BBX 10 14 0 0
BITMAP
000080
0007D0
002DE0
00A470
000000
0B40E0
0B82E0
0B43C0
0F0B80
2E1F40
3C2F00
78AE00
B69E00
7D0F80
ENDCHAR
STARTCHAR udieresis
ENCODING 252
SWIDTH 553 0
DWIDTH 10 0
BBX 11 14 0 0
BITMAP
00B878
00B8B8
006060
000000
000000
0B40E0
0B82E0
0B43C0
0F0B80
2E1F40
3C2F00
78AE00
B69E00
7D0F80
ENDCHAR
STARTCHAR yacute
ENCODING 253
SWIDTH 549 0
DWIDTH 10 0
BBX 10 19 0 -5
BITMAP
000380
000780
000F00
002800
000000
0B40A0
0781E0
0B43D0
0F07C0
2E0F80
3D2F40
786B00
799E00
3E2D00
003800
007400
01E000
078000
2E0000
ENDCHAR
STARTCHAR thorn
ENCODING 254
SWIDTH 552 0
DWIDTH 10 0
BBX 12 20 -2 -5
BITMAP
000500
000B00
000F00
001E00
001D00
002C00
0039F4
007A3C
00B82D
00F02D
01E03C
02C0B8
03C1F0
07D7C0
0B7E00
0E0000
1D0000
2C0000
780000
700000
ENDCHAR
STARTCHAR ydieresis
ENCODING 255
SWIDTH 549 0
DWIDTH 10 0
BBX 11 19 0 -5
BITMAP
00F4F4
01F5F4
005050
000000
000000
0B40A0
0781E0
0B43D0
0F07C0
2E0F80
3D2F40
786B00
799E00
3E2D00
003800
007400
01E000
078000
2E0000
ENDCHAR
STARTCHAR Amacron
ENCODING 256
SWIDTH 615 0
DWIDTH 11 0
BBX 15 16 -2 0
BITMAP
00002FFC
00000000
000006E0
00002ED0
0000B6C0
0001D380
00074740
000A0B00
001D0E00
007EFFC0
02FABE40
00D03C00
02C07800
07407800
1E007800
78002E00
ENDCHAR
STARTCHAR amacron
ENCODING 257
SWIDTH 543 0
DWIDTH 10 0
BBX 10 13 0 -1
BITMAP
01FFE0
000000
000000
00BDE0
0797D0
0F07C0
2D0B40
3C0F00
781E00
783D00
78AE40
1E4F80
000100
ENDCHAR
STARTCHAR Abreve
ENCODING 258
SWIDTH 615 0
DWIDTH 11 0
BBX 15 18 -2 0
BITMAP
00000404
00000E1C
00000BE4
00000000
000006E0
00002ED0
0000B6C0
0001D380
00074740
000A0B00
001D0E00
007EFFC0
02FABE40
00D03C00
02C07800
07407400
1E007E00
78002E00
ENDCHAR
STARTCHAR abreve
ENCODING 259
SWIDTH 543 0
DWIDTH 10 0
BBX 10 15 0 -1
BITMAP
007020
0074A0
002F40
000000
000000
00BDE0
0797D0
0F07C0
2D0B40
3C0F00
781E00
783D00
78AE40
1E4F80
000100
ENDCHAR
STARTCHAR Aogonek
ENCODING 260
SWIDTH 615 0
DWIDTH 11 0
BBX 14 18 -2 -4
BITMAP
000006E0
00002ED0
0000B6C0
0001D380
00074740
000A0B00
001D0E00
007EFFC0
02FABE40
00D03C00
02C07800
07407400
1E007A00
78003E00
00007400
0000E000
0002D000
0001F400
ENDCHAR
STARTCHAR aogonek
ENCODING 261
SWIDTH 541 0
DWIDTH 10 0
BBX 10 13 0 -4
BITMAP
00B9E0
0787D0
0F07C0
2D0B40
3C0F00
781E00
783D00
78EE40
2E4B80
000E00
002800
007800
007D00
ENDCHAR
STARTCHAR Cacute
ENCODING 262
SWIDTH 533 0
DWIDTH 10 0
BBX 11 18 1 0
BITMAP
000018
00003C
0000B4
000040
002F80
01F4A0
07C0B0
0F41E0
2E07D0
3C0B80
780100
B40000
F00000
F00000
F00000
F00400
786C00
1FE400
ENDCHAR
STARTCHAR cacute
ENCODING 263
SWIDTH 468 0
DWIDTH 8 0
BBX 10 15 0 0
BITMAP
000040
0000E0
0002D0
000780
000D00
000000
00BE00
078700
1F0B40
2D1F00
3C0800
780000
780400
3C2800
1BE000
ENDCHAR
STARTCHAR Ccircumflex
ENCODING 264
SWIDTH 533 0
DWIDTH 10 0
BBX 11 18 1 0
BITMAP
000060
0001F4
001B7C
000414
002F80
01F4A0
07C0B0
0F41E0
2E07D0
3C0B80
780100
B40000
F00000
F00000
F00000
F00400
786C00
1FE400
ENDCHAR
STARTCHAR ccircumflex
ENCODING 265
SWIDTH 468 0
DWIDTH 8 0
BBX 10 14 0 0
BITMAP
000240
000BC0
007AD0
01D0D0
000000
00BE00
078700
1F0B40
2D1F00
3C0800
780000
780400
3C2800
1BE000
ENDCHAR
STARTCHAR Cdotaccent
ENCODING 266
SWIDTH 533 0
DWIDTH 10 0
BBX 10 17 1 0
BITMAP
0003C0
0007D0
000140
002F80
01F4A0
07C0B0
0F41E0
2E07D0
3C0B80
780100
B40000
F00000
F00000
F00000
F00400
786C00
1FE400
ENDCHAR
STARTCHAR cdotaccent
ENCODING 267
SWIDTH 468 0
DWIDTH 8 0
BBX 9 14 0 0
BITMAP
000F00
001F40
000500
000000
000000
00BE00
078700
1F0B40
2D1F00
3C0800
780000
780400
3C2800
1BE000
ENDCHAR
STARTCHAR Ccaron
ENCODING 268
SWIDTH 533 0
DWIDTH 10 0
BBX 12 18 1 0
BITMAP
000501
000B5E
0003E4
000100
002F80
01F4A0
07C0B0
0F41E0
2E07D0
3C0B80
780100
B40000
F00000
F00000
F00000
F00400
786C00
1FE400
ENDCHAR
STARTCHAR ccaron
ENCODING 269
SWIDTH 468 0
DWIDTH 8 0
BBX 11 14 0 0
BITMAP
002418
003C74
002ED0
001900
000000
00BE00
078700
1F0B40
2D1F00
3C0800
780000
780400
3C2800
1BE000
ENDCHAR
STARTCHAR Dcaron
ENCODING 270
SWIDTH 630 0
DWIDTH 11 0
BBX 11 18 1 0
BITMAP
001404
002D68
000F90
000500
1BFE40
3E42D0
0140B4
07C078
0B4078
1F0078
2E00B4
3C00F0
7802E0
B407C0
F00F40
F07D00
E2F400
7E4000
ENDCHAR
STARTCHAR dcaron
ENCODING 271
SWIDTH 557 0
DWIDTH 10 0
BBX 15 15 0 0
BITMAP
00000E78
00002D78
00003C74
000078A0
0000B440
0000F000
00BEE000
02D3D000
0B43C000
1E078000
3C0B4000
3C1F4000
782F0000
3CAF0000
1F87D000
ENDCHAR
STARTCHAR Dcroat
ENCODING 272
SWIDTH 630 0
DWIDTH 11 0
BBX 12 14 0 0
BITMAP
06FF80
1F81B4
05002C
01F01D
02D01E
07C02D
7FFD2D
6FA43C
1E00B4
2D01F0
3C07C0
781F40
78B800
1F9000
ENDCHAR
STARTCHAR dcroat
ENCODING 273
SWIDTH 557 0
DWIDTH 10 0
BBX 12 15 0 0
BITMAP
00000E
00002D
000BFF
0005B8
0000B0
0000F0
00BEE0
02D3D0
0B43C0
1E0780
3C0B40
3C1F40
782F00
3CAF00
1F87D0
ENDCHAR
STARTCHAR Emacron
ENCODING 274
SWIDTH 509 0
DWIDTH 9 0
BBX 11 16 0 0
BITMAP
002FF8
000000
001BE0
00F834
03D074
0781F0
0B43D0
0F0140
0B0000
03F800
0BD000
2F0000
3D0000
780600
3C2D00
1BE400
ENDCHAR
STARTCHAR emacron
ENCODING 275
SWIDTH 471 0
DWIDTH 8 0
BBX 9 12 0 0
BITMAP
02FF80
000000
000000
00BD00
078B00
0F0B00
2D1F00
3DBD00
7F9000
780000
3C1C00
1BE400
ENDCHAR
STARTCHAR Ebreve
ENCODING 276
SWIDTH 509 0
DWIDTH 9 0
BBX 11 18 0 0
BITMAP
000404
001E1C
000BE0
000000
001BE0
00F834
03D074
0781F0
0B43D0
0F0140
0B0000
03F800
0BD000
2F0000
3D0000
780600
3C2D00
1BE400
ENDCHAR
STARTCHAR ebreve
ENCODING 277
SWIDTH 471 0
DWIDTH 8 0
BBX 10 14 0 0
BITMAP
009090
00E180
00BE00
000000
000000
00BD00
078B00
0F0B00
2D1F00
3DBD00
7F9000
780000
3C1C00
1BE400
ENDCHAR
STARTCHAR Edotaccent
ENCODING 278
SWIDTH 509 0
DWIDTH 9 0
BBX 11 17 0 0
BITMAP
000780
000B80
000600
001BE0
00F834
03D074
0781F0
0B43D0
0F0140
0B0000
03F800
0BD000
2F0000
3D0000
780600
3C2D00
1BE400
ENDCHAR
STARTCHAR edotaccent
ENCODING 279
SWIDTH 471 0
DWIDTH 8 0
BBX 8 14 0 0
BITMAP
002D
003D
0018
0000
0000
00BD
078B
0F0B
2D1F
3DBD
7F90
7800
3C1C
1BE4
ENDCHAR
STARTCHAR Eogonek
ENCODING 280
SWIDTH 509 0
DWIDTH 9 0
BBX 11 18 0 -4
BITMAP
001BE0
00F834
03D074
0781F0
0B43D0
0F0140
0B0000
03F800
0BD000
2F0000
3D0000
780600
3C2E00
1BF400
028000
0B0000
0E0000
0F8000
ENDCHAR
STARTCHAR eogonek
ENCODING 281
SWIDTH 471 0
DWIDTH 8 0
BBX 9 13 0 -4
BITMAP
00BD00
078B00
0F0B40
2D1F00
3DBD00
7F9000
780000
3C1C00
1BF400
01D000
074000
0B0000
0B8000
ENDCHAR
STARTCHAR Ecaron
ENCODING 282
SWIDTH 509 0
DWIDTH 9 0
BBX 12 18 0 0
BITMAP
000404
001F2D
000BE4
000100
001BE0
00F834
03D074
0781F0
0B43D0
0F0140
0B0000
03F800
0BD000
2F0000
3D0000
780600
3C2D00
1BE400
ENDCHAR
STARTCHAR ecaron
ENCODING 283
SWIDTH 471 0
DWIDTH 8 0
BBX 10 14 0 0
BITMAP
00A020
00B5E0
007B80
002800
000000
00BD00
078B00
0F0B00
2D1F00
3DBD00
7F9000
780000
3C1C00
1BE400
ENDCHAR
STARTCHAR Gcircumflex
ENCODING 284
SWIDTH 598 0
DWIDTH 11 0
BBX 11 18 1 0
BITMAP
000060
0001F4
001B78
001414
002F80
00F4A0
07D0B0
0F41F0
2E07D0
3D0B80
780100
B40000
F03FE0
F01F80
F00D00
F01C00
787400
1F9000
ENDCHAR
STARTCHAR gcircumflex
ENCODING 285
SWIDTH 526 0
DWIDTH 9 0
BBX 10 19 0 -5
BITMAP
000180
000BC0
006ED0
01E0E0
000000
00BD40
0787D0
0F03C0
2D0780
3C0B40
781F00
783E00
38BD00
1F6C00
003800
00B400
01E000
078000
2E0000
ENDCHAR
STARTCHAR Gbreve
ENCODING 286
SWIDTH 598 0
DWIDTH 11 0
BBX 12 18 1 0
BITMAP
000501
000B09
0007F4
000000
002F80
00F4A0
07D0B0
0F41F0
2E07D0
3D0B80
780100
B40000
F03FE0
F01F80
F00D00
F01C00
787400
1F9000
ENDCHAR
STARTCHAR gbreve
ENCODING 287
SWIDTH 526 0
DWIDTH 9 0
BBX 10 19 0 -5
BITMAP
003020
0074A0
002F80
000000
000000
00BD40
0787D0
0F03C0
2D0780
3C0B40
781F00
783E00
38BD00
1F6C00
003800
00B400
01E000
078000
2E0000
ENDCHAR
STARTCHAR Gdotaccent
ENCODING 288
SWIDTH 598 0
DWIDTH 11 0
BBX 10 17 1 0
BITMAP
0003C0
0007C0
000240
002F80
00F4A0
07D0B0
0F41F0
2E07D0
3D0B80
780100
B40000
F03FE0
F01F80
F00D00
F01C00
787400
1F9000
ENDCHAR
STARTCHAR gdotaccent
ENCODING 289
SWIDTH 526 0
DWIDTH 9 0
BBX 10 19 0 -5
BITMAP
000B40
001F40
000500
000000
000000
00BD40
0787D0
0F03C0
2D0780
3C0B40
781F00
783E00
38BD00
1F6C00
003800
00B400
01E000
078000
2E0000
ENDCHAR
STARTCHAR Gcommaaccent
ENCODING 290
SWIDTH 598 0
DWIDTH 11 0
BBX 10 19 1 -5
BITMAP
002F80
00F4A0
07D0B0
0F40F0
2E02E0
3D0BD0
780B40
B40000
F00400
F03FE0
F00F80
F01D00
787800
1F9000
000000
3C0000
2C0000
280000
600000
ENDCHAR
STARTCHAR gcommaaccent
ENCODING 291
SWIDTH 526 0
DWIDTH 9 0
BBX 10 19 0 -5
BITMAP
000280
000B00
000F00
000500
000000
00BD40
0787D0
0F03C0
2D0780
3C0B40
781F00
783E00
38BD00
1F6C00
003800
00B400
01E000
078000
2E0000
ENDCHAR
STARTCHAR Hcircumflex
ENCODING 292
SWIDTH 668 0
DWIDTH 12 0
BBX 14 18 -1 0
BITMAP
00001800
00007D00
0006DF00
00010500
02F800D0
027C01E0
003C02D0
007803C0
00B40780
00F00B40
01FAFF80
07D01D00
03C02C00
07803800
0B407800
1E00B400
3C00B500
74007D00
ENDCHAR
STARTCHAR hcircumflex
ENCODING 293
SWIDTH 555 0
DWIDTH 10 0
BBX 10 18 0 0
BITMAP
001800
007D00
02DE00
0E0B00
00D000
01E000
01E000
02D000
03C000
078B80
076FD0
0B72C0
1EC780
2F4B40
3D0F00
781E00
B41D40
A00F80
ENDCHAR
STARTCHAR Hbar
ENCODING 294
SWIDTH 668 0
DWIDTH 12 0
BBX 15 14 -1 0
BITMAP
02F400D0
027C01E0
003C01E0
01BC02D0
0BFFFFF8
01B40740
00FAFF80
07E41E40
02C02D00
03803C00
0B407800
0E00B400
2C00B500
74007D00
ENDCHAR
STARTCHAR hbar
ENCODING 295
SWIDTH 555 0
DWIDTH 10 0
BBX 10 15 0 0
BITMAP
00A000
00F000
0BFF00
01E000
02D000
03C000
078B80
0B6FD0
0B72C0
0E8780
2F4B40
3D0F00
781E00
B41D40
A00F80
ENDCHAR
STARTCHAR Itilde
ENCODING 296
SWIDTH 327 0
DWIDTH 6 0
BBX 9 17 0 0
BITMAP
01E480
056F40
000000
0BE000
05B400
00F000
00F000
01E000
02E000
03D000
03C000
0B8000
0F0000
1E0000
2C0000
B40000
E00000
ENDCHAR
STARTCHAR itilde
ENCODING 297
SWIDTH 286 0
DWIDTH 5 0
BBX 8 14 0 0
BITMAP
0B42
26D5
20B8
0000
0000
0B40
0B40
0B00
0E00
2D00
3800
7400
7E00
3D00
ENDCHAR
STARTCHAR Imacron
ENCODING 298
SWIDTH 327 0
DWIDTH 6 0
BBX 9 16 0 0
BITMAP
07FF40
000000
0BE000
05B400
00F000
00F000
01E000
02E000
03D000
03C000
0B8000
0F0000
1E0000
2C0000
B40000
E00000
ENDCHAR
STARTCHAR imacron
ENCODING 299
SWIDTH 286 0
DWIDTH 5 0
BBX 7 12 0 0
BITMAP
2FF8
0000
0000
0B40
0B40
0B00
0E00
2D00
3800
7400
7E00
3D00
ENDCHAR
STARTCHAR Ibreve
ENCODING 300
SWIDTH 327 0
DWIDTH 6 0
BBX 9 18 0 0
BITMAP
004040
02C280
01FD00
000000
0BE000
05B400
00F000
00F000
01E000
02E000
03D000
03C000
0B8000
0F0000
1E0000
2C0000
B40000
E00000
ENDCHAR
STARTCHAR ibreve
ENCODING 301
SWIDTH 286 0
DWIDTH 5 0
BBX 8 14 0 0
BITMAP
0905
0E1C
07E0
0000
0000
0B40
0B40
0B00
0E00
2D00
3800
7400
7E00
3D00
ENDCHAR
STARTCHAR Iogonek
ENCODING 302
SWIDTH 327 0
DWIDTH 6 0
BBX 10 17 -3 -3
BITMAP
002F80
0016D0
0003C0
0003C0
000780
000B40
000F00
001E00
002D00
003C00
00B400
01E000
038000
0A0000
280000
740000
7D0000
ENDCHAR
STARTCHAR iogonek
ENCODING 303
SWIDTH 297 0
DWIDTH 5 0
BBX 7 18 -1 -4
BITMAP
0078
00BC
0024
0000
0000
02E0
01E0
02D0
03C0
0740
0B00
0E00
1E40
0F80
0A00
2800
7400
7D00
ENDCHAR
STARTCHAR Idotaccent
ENCODING 304
SWIDTH 327 0
DWIDTH 6 0
BBX 7 17 0 0
BITMAP
00B4
00F4
0050
0BE0
05B4
00F0
00F0
01E0
02E0
03D0
03C0
0B80
0F00
1E00
2C00
B400
E000
ENDCHAR
STARTCHAR dotlessi
ENCODING 305
SWIDTH 286 0
DWIDTH 5 0
BBX 5 9 0 0
BITMAP
0B40
0B40
0B00
0E00
2D00
3800
7400
7E00
3D00
ENDCHAR
STARTCHAR IJ
ENCODING 306
SWIDTH 720 0
DWIDTH 13 0
BBX 14 19 0 -5
BITMAP
0BE06F80
05B6F6D0
00F782D0
00F003D0
01E007C0
02E00780
03D00B40
03C00F00
0B801E00
0F003D00
1E007C00
2C00B800
B400F000
E002E000
0007C000
000F4000
002D0000
00B80000
03900000
ENDCHAR
STARTCHAR ij
ENCODING 307
SWIDTH 567 0
DWIDTH 10 0
BBX 11 19 0 -5
BITMAP
02E0B4
02E0F4
018050
000000
000000
0B42D0
0B42D0
0B02D0
0E02C0
2D03C0
380780
740B40
7E0F00
3D1E00
002C00
007800
00E000
02C000
0A0000
ENDCHAR
STARTCHAR Jcircumflex
ENCODING 308
SWIDTH 393 0
DWIDTH 7 0
BBX 13 22 -3 -5
BITMAP
00001D00
0000BE00
00078740
001BE000
00BD7800
00A0B800
0000B400
0000F000
0001F000
0002E000
0003D000
0007C000
000B8000
001F0000
002E0000
003D0000
00B80000
01F00000
02D00000
0B800000
2E000000
F4000000
ENDCHAR
STARTCHAR jcircumflex
ENCODING 309
SWIDTH 282 0
DWIDTH 5 0
BBX 10 19 -3 -5
BITMAP
000180
000BC0
006AD0
01E0E0
000000
003D00
002D00
002D00
003C00
007800
007400
00B000
00E000
02D000
03C000
074000
0E0000
280000
E00000
ENDCHAR
STARTCHAR Kcommaaccent
ENCODING 310
SWIDTH 616 0
DWIDTH 11 0
BBX 13 19 -1 -5
BITMAP
07E00B40
06780780
00780B80
00B40F40
00F42D00
00F0B800
01E2D000
02EA0000
03FD0000
079F0000
0F4B8000
1E03D000
7C01F400
B4007E00
00000000
01E00000
01E00000
01C00000
02400000
ENDCHAR
STARTCHAR kcommaaccent
ENCODING 311
SWIDTH 497 0
DWIDTH 9 0
BBX 9 20 0 -5
BITMAP
005000
00B000
00F000
01E000
01D000
02C000
038780
0743C0
0B0B80
0E7D00
1FD000
2ED000
79E000
B4BA40
A02E00
000000
1E0000
0E0000
1D0000
240000
ENDCHAR
STARTCHAR kgreenlandic
ENCODING 312
SWIDTH 497 0
DWIDTH 9 0
BBX 9 9 0 0
BITMAP
0B4780
0B43C0
0B0B80
0F2E00
1FE400
3FD000
7DE000
B4B400
A02E00
ENDCHAR
STARTCHAR Lacute
ENCODING 313
SWIDTH 517 0
DWIDTH 9 0
BBX 12 18 -1 0
BITMAP
000005
00000F
00002D
000050
0002E4
000F5C
002D1C
00782C
00B4B8
01F2F0
02E2D0
03D000
078000
0B4000
0F0000
1D0500
7EFFC0
3E96D0
ENDCHAR
STARTCHAR lacute
ENCODING 314
SWIDTH 279 0
DWIDTH 5 0
BBX 8 18 0 0
BITMAP
0006
000F
002D
0010
00D0
01D0
02D0
03C0
0380
0740
0B00
0E00
1D00
2C00
3800
7800
7500
2E00
ENDCHAR
STARTCHAR Lcommaaccent
ENCODING 315
SWIDTH 517 0
DWIDTH 9 0
BBX 11 19 -1 -5
BITMAP
0002E4
000F5C
002D1C
00782C
00B4B8
01F2F0
02E2D0
03D000
078000
0B4000
0F0000
1D0500
7EFFC0
3E96D0
000000
0B4000
0B4000
0A0000
180000
ENDCHAR
STARTCHAR lcommaaccent
ENCODING 316
SWIDTH 279 0
DWIDTH 5 0
BBX 6 20 0 -5
BITMAP
0040
00E0
01E0
02D0
02C0
0380
0740
0B00
0E00
1D00
2C00
3C00
7800
7500
2D00
0000
7800
7800
7400
9000
ENDCHAR
STARTCHAR Lcaron
ENCODING 317
SWIDTH 517 0
DWIDTH 9 0
BBX 15 17 -1 0
BITMAP
00000074
00000078
00000074
0002E4A0
000F5D40
002D1C00
00782C00
00B4B800
01F2F000
02E2D000
03D00000
07800000
0B400000
0F000000
1D050000
7EFFC000
3E96D000
ENDCHAR
STARTCHAR lcaron
ENCODING 318
SWIDTH 467 0
DWIDTH 8 0
BBX 10 15 0 0
BITMAP
00D0E0
01E0F0
01E0E0
02D280
03C100
078000
074000
0B0000
0E0000
1D0000
2C0000
380000
780000
760000
2D0000
ENDCHAR
STARTCHAR Ldot
ENCODING 319
SWIDTH 668 0
DWIDTH 12 0
BBX 14 14 -1 0
BITMAP
0002E400
000F5C00
002D1C00
00782C00
00B4B800
01F2F000
02E2D000
03D007D0
078007C0
0B400140
0F000000
1D050000
7EFFC000
3E96D000
ENDCHAR
STARTCHAR ldot
ENCODING 320
SWIDTH 489 0
DWIDTH 9 0
BBX 9 15 0 0
BITMAP
00D000
01E000
01E000
02D000
03C000
078000
074000
0B0500
0E0F80
1D0F40
2C0000
380000
780000
760000
2D0000
ENDCHAR
STARTCHAR Lslash
ENCODING 321
SWIDTH 517 0
DWIDTH 9 0
BBX 11 14 -1 0
BITMAP
0002E0
000F58
002D1C
007C2C
00B47C
01F1F4
02E3E0
03D180
1FF800
2F4000
0F0000
1D0500
7EFFC0
3E96D0
ENDCHAR
STARTCHAR lslash
ENCODING 322
SWIDTH 279 0
DWIDTH 5 0
BBX 8 15 0 0
BITMAP
0340
02FE
01E0
02D0
03C0
0380
0740
0B00
0E00
1D00
2C00
3C00
7800
7500
2E00
ENDCHAR
STARTCHAR Nacute
ENCODING 323
SWIDTH 708 0
DWIDTH 13 0
BBX 14 18 0 0
BITMAP
00000040
000001D0
000003D0
00000A40
001E02D0
007E02F0
00FD01F0
02DD01E0
036D01D0
0B1D02C0
0E1E0340
1D1E0B00
2C0F0D00
380F5C00
740B7400
B007F000
B002E000
6001D000
ENDCHAR
STARTCHAR nacute
ENCODING 324
SWIDTH 561 0
DWIDTH 10 0
BBX 10 15 0 0
BITMAP
000040
0001D0
0002D0
000B40
001900
000000
0B4B80
0B6FD0
0BB2D0
0FD3C0
1F4B80
2D0F00
781E00
B41E00
A00B80
ENDCHAR
STARTCHAR Ncommaaccent
ENCODING 325
SWIDTH 708 0
DWIDTH 13 0
BBX 14 19 0 -5
BITMAP
001E02D0
007E02F0
00FD01F0
02DD01E0
036D01D0
0B1D02C0
0E1E0340
1D1E0B00
2C0F0D00
380F5C00
740B7400
B007F000
B002E000
6001D000
00000000
00B40000
00740000
00B00000
00900000
ENDCHAR
STARTCHAR ncommaaccent
ENCODING 326
SWIDTH 561 0
DWIDTH 10 0
BBX 10 14 0 -5
BITMAP
0B4B80
0B6FD0
0BB2D0
0FD3C0
1F4B80
2D0F00
781E00
B41E00
A00B80
000000
0F0000
0B0000
0E0000
280000
ENDCHAR
STARTCHAR Ncaron
ENCODING 327
SWIDTH 708 0
DWIDTH 13 0
BBX 14 17 0 0
BITMAP
0000B470
00003F90
00001800
001E02D0
007E02F0
00FD01F0
02DD01E0
036D01D0
0B1D02C0
0E1E0340
1D1E0B00
2C0F0D00
380F5C00
740B7400
B007F000
B002E000
6001D000
ENDCHAR
STARTCHAR ncaron
ENCODING 328
SWIDTH 561 0
DWIDTH 10 0
BBX 11 14 0 0
BITMAP
002418
003C74
002ED0
001900
000000
0B4B80
0B6FD0
0BB2D0
0FD3C0
1F4B80
2D0F00
781E00
B41E00
A00B80
ENDCHAR
STARTCHAR Eng
ENCODING 330
SWIDTH 698 0
DWIDTH 13 0
BBX 14 19 0 -5
BITMAP
002D03D0
00BD02E0
01FD01E0
02AD01E0
076D02D0
0A2D02C0
1D2D03C0
2C2E0740
381E0B00
740F0E00
740F5D00
B007A800
A003F000
A002E000
00078000
000F0000
002D0000
00B40000
03800000
ENDCHAR
STARTCHAR eng
ENCODING 331
SWIDTH 561 0
DWIDTH 10 0
BBX 10 14 0 -5
BITMAP
0B4B80
0B6FD0
0BB2D0
0FD2C0
1F4380
2D0740
780B00
B41E00
A02D00
007800
00B000
02D000
078000
1D0000
ENDCHAR
STARTCHAR Omacron
ENCODING 332
SWIDTH 655 0
DWIDTH 12 0
BBX 12 16 1 0
BITMAP
001FFE
000000
001BE0
00B474
03D03C
0B802C
1F003C
3D003C
7C0078
B800B4
B401F0
F002D0
F00780
B01F00
787C00
1FE000
ENDCHAR
STARTCHAR omacron
ENCODING 333
SWIDTH 514 0
DWIDTH 9 0
BBX 10 12 0 0
BITMAP
00BFE0
000000
000000
00BE00
078B40
0F0780
2D0780
3C0B40
781F00
782D00
38B800
1F9000
ENDCHAR
STARTCHAR Obreve
ENCODING 334
SWIDTH 655 0
DWIDTH 12 0
BBX 12 18 1 0
BITMAP
000101
000B4A
0007F8
000000
001BE0
00B474
03D03C
0B802C
1F003C
3D003C
7C0078
B800B4
B401F0
F002D0
F00780
B01F00
787C00
1FE000
ENDCHAR
STARTCHAR obreve
ENCODING 335
SWIDTH 514 0
DWIDTH 9 0
BBX 10 14 0 0
BITMAP
003020
0074A0
002F80
000000
000000
00BE00
078B40
0F0780
2D0780
3C0B40
781F00
782D00
38B800
1F9000
ENDCHAR
STARTCHAR Ohungarumlaut
ENCODING 336
SWIDTH 655 0
DWIDTH 12 0
BBX 12 18 1 0
BITMAP
000041
0001C7
00038A
000A28
001BE0
00B474
03D03C
0B802C
1F003C
3D003C
7C0078
B800B4
B401F0
F002D0
F00780
B01F00
787C00
1FE000
ENDCHAR
STARTCHAR ohungarumlaut
ENCODING 337
SWIDTH 514 0
DWIDTH 9 0
BBX 11 15 0 0
BITMAP
000410
001D34
002CB0
0075D0
019240
000000
00BE00
078B40
0F0780
2D0780
3C0B40
781F00
782D00
38B800
1F9000
ENDCHAR
STARTCHAR OE
ENCODING 338
SWIDTH 900 0
DWIDTH 16 0
BBX 17 14 2 0
BITMAP
002FD2FE00
01F47F8340
07D03D0740
0F40B81F00
1E00F07D00
3D00F01400
7800B00000
B4003F8000
F000BD0000
F002E00000
E007C00000
F01F80A000
747FD6D000
1FE1BE4000
ENDCHAR
STARTCHAR oe
ENCODING 339
SWIDTH 777 0
DWIDTH 14 0
BBX 13 9 1 0
BITMAP
01F82F40
0B4EE2C0
2D0FC3C0
7C0F4780
B41F2F00
F02FE400
F07E0000
B5FF0B00
2F97F900
ENDCHAR
STARTCHAR Racute
ENCODING 340
SWIDTH 623 0
DWIDTH 11 0
BBX 13 17 -1 0
BITMAP
00000E00
00002D00
00006400
006FE400
03E41E00
01580B00
003C0B40
00780F00
00F42E00
01F1B800
02FBD000
03EE0000
07CB4000
0B47C000
1E02D000
2D01F400
74007D00
ENDCHAR
STARTCHAR racute
ENCODING 341
SWIDTH 407 0
DWIDTH 7 0
BBX 9 15 0 0
BITMAP
000100
000740
000F40
002D00
006400
000000
0F0B00
0F7F00
0FA600
0E8000
1F0000
2D0000
3C0000
B40000
700000
ENDCHAR
STARTCHAR Rcommaaccent
ENCODING 342
SWIDTH 623 0
DWIDTH 11 0
BBX 13 19 -1 -5
BITMAP
006FE400
03E41E00
01580B00
003C0B40
00780F00
00F42E00
01F1B800
02FBD000
03EE0000
07CB4000
0B47C000
1E02D000
2D01F400
74007D00
00000000
02D00000
02D00000
02C00000
06000000
ENDCHAR
STARTCHAR rcommaaccent
ENCODING 343
SWIDTH 407 0
DWIDTH 7 0
BBX 9 14 -1 -5
BITMAP
03C280
03DFC0
03E980
03A000
07C000
0B4000
0F0000
2D0000
1C0000
000000
780000
780000
740000
900000
ENDCHAR
STARTCHAR Rcaron
ENCODING 344
SWIDTH 623 0
DWIDTH 11 0
BBX 13 18 -1 0
BITMAP
00010100
0007CB40
0002F900
00004000
006FE400
03E41E00
01580B00
003C0B40
00780F00
00F42E00
01F1B800
02FBD000
03EE0000
07CB4000
0B47C000
1E02D000
2D01F400
74007D00
ENDCHAR
STARTCHAR rcaron
ENCODING 345
SWIDTH 407 0
DWIDTH 7 0
BBX 10 14 0 0
BITMAP
009060
00E2D0
00BB40
006400
000000
0F0B00
0F7F00
0FA600
0E8000
1F0000
2D0000
3C0000
B40000
700000
ENDCHAR
STARTCHAR Sacute
ENCODING 346
SWIDTH 474 0
DWIDTH 9 0
BBX 11 18 0 0
BITMAP
000024
000078
0001E0
000140
006F40
01E1D0
0780A0
0B40E0
0F02E0
0F4BC0
0B8240
07D000
02F000
00F400
207800
B47400
78A000
2F8000
ENDCHAR
STARTCHAR sacute
ENCODING 347
SWIDTH 423 0
DWIDTH 8 0
BBX 9 15 0 0
BITMAP
000100
000740
000B40
001E00
007400
000000
02F800
0E1E00
1E1D00
0F4000
0B8000
03D000
61E000
B5D000
6F4000
ENDCHAR
STARTCHAR Scircumflex
ENCODING 348
SWIDTH 474 0
DWIDTH 9 0
BBX 11 18 0 0
BITMAP
000050
0002F0
001EB4
001414
006F40
01E1D0
0780A0
0B40E0
0F02E0
0F4BC0
0B8240
07D000
02F000
00F400
207800
B47400
78A000
2F8000
ENDCHAR
STARTCHAR scircumflex
ENCODING 349
SWIDTH 423 0
DWIDTH 8 0
BBX 9 14 0 0
BITMAP
000600
001F00
00B740
038280
000000
02F800
0E1E00
1E1D00
0F4000
0B8000
03D000
61E000
B5D000
6F4000
ENDCHAR
STARTCHAR Scedilla
ENCODING 350
SWIDTH 474 0
DWIDTH 9 0
BBX 10 18 0 -4
BITMAP
006F40
02E1D0
0780A0
0B40E0
0F02E0
0F4B80
0B8100
07D000
01F000
10B400
747400
B47400
7EE000
1A4000
070000
0B0000
3E0000
140000
ENDCHAR
STARTCHAR scedilla
ENCODING 351
SWIDTH 423 0
DWIDTH 8 0
BBX 8 13 0 -4
BITMAP
02F8
0E1E
1E1D
0F00
0B80
03D0
61E0
B5D0
2F40
0C00
1D00
7C00
7400
ENDCHAR
STARTCHAR Scaron
ENCODING 352
SWIDTH 474 0
DWIDTH 9 0
BBX 12 18 0 0
BITMAP
000404
001F2D
000BE4
000100
006F40
01E1D0
0780A0
0B40E0
0F02E0
0F4BC0
0B8240
07D000
02F000
00F400
207800
B47400
78A000
2F8000
ENDCHAR
STARTCHAR scaron
ENCODING 353
SWIDTH 423 0
DWIDTH 8 0
BBX 10 14 0 0
BITMAP
00A020
00B1E0
007B80
002800
000000
02F800
0E1E00
1E1D00
0F4000
0B8000
03D000
61E000
B5D000
6F4000
ENDCHAR
STARTCHAR Tcommaaccent
ENCODING 354
SWIDTH 471 0
DWIDTH 8 0
BBX 11 19 1 -5
BITMAP
2F8014
7FF920
B47FE0
A0B800
10F400
01F000
02E000
03D000
07C000
0B8000
0F0000
1E0000
3C0000
A40000
000000
780000
380000
740000
900000
ENDCHAR
STARTCHAR tcommaaccent
ENCODING 355
SWIDTH 358 0
DWIDTH 6 0
BBX 7 16 0 -5
BITMAP
01D0
03C0
1FF8
0B00
0E00
1D00
2C00
3C00
3810
3ED0
1F40
0000
7800
3C00
3400
9000
ENDCHAR
STARTCHAR Tcaron
ENCODING 356
SWIDTH 471 0
DWIDTH 8 0
BBX 11 18 1 0
BITMAP
001404
002D78
000F90
000500
2FA414
BFFFE0
B07800
50B400
00F000
01E000
02D000
03C000
078000
0B4000
0F0000
1E0000
3C0000
A00000
ENDCHAR
STARTCHAR tcaron
ENCODING 357
SWIDTH 497 0
DWIDTH 9 0
BBX 10 15 1 0
BITMAP
0000E0
0001E0
0001D0
004280
02D100
078000
2FF400
0F0000
1D0000
2C0000
3C0000
780000
740000
7AC000
2E4000
ENDCHAR
STARTCHAR Tbar
ENCODING 358
SWIDTH 471 0
DWIDTH 8 0
BBX 11 14 1 0
BITMAP
2FA414
BFFFE0
B47800
50B400
00F000
01F000
01E000
BFF800
07C000
078000
0B0000
1E0000
2C0000
A40000
ENDCHAR
STARTCHAR tbar
ENCODING 359
SWIDTH 358 0
DWIDTH 6 0
BBX 7 12 0 0
BITMAP
0040
01D0
03C0
1FF8
0B00
0F00
7FF4
2D00
3C00
3810
3ED0
1F40
ENDCHAR
STARTCHAR Utilde
ENCODING 360
SWIDTH 624 0
DWIDTH 11 0
BBX 13 17 0 0
BITMAP
00079200
0019BD00
00000000
01E00740
01F00B40
01E01E00
02D02D00
03C07C00
0780B800
0F41F400
1E02F000
2D07E000
3C0AE000
781AD000
B462C000
B582D400
3E01F400
ENDCHAR
STARTCHAR utilde
ENCODING 361
SWIDTH 553 0
DWIDTH 10 0
BBX 11 14 0 0
BITMAP
002E08
009758
0082E0
000000
000000
0B40E0
0B82E0
0B43C0
0F0B80
2E1F40
3C2F00
78AE00
B69E00
7D0F80
ENDCHAR
STARTCHAR Umacron
ENCODING 362
SWIDTH 624 0
DWIDTH 11 0
BBX 13 16 0 0
BITMAP
001FFE00
00000000
01E00740
01F00B40
01E01E00
02D02D00
03C07C00
0780B800
0F41F400
1E02F000
2D07E000
3C0AE000
781AD000
B462C000
B582D400
3E01F400
ENDCHAR
STARTCHAR umacron
ENCODING 363
SWIDTH 553 0
DWIDTH 10 0
BBX 11 12 0 0
BITMAP
00BFF4
000000
000000
0B40E0
0B82E0
0B43C0
0F0B80
2E1F40
3C2F00
78AE00
B69E00
7D0F80
ENDCHAR
STARTCHAR Ubreve
ENCODING 364
SWIDTH 624 0
DWIDTH 11 0
BBX 13 18 0 0
BITMAP
00010100
000B0A00
0007F800
00000000
01E00740
01F00B40
01E01E00
02D02D00
03C07C00
0780B800
0F41F400
1E02F000
2D07E000
3C0AE000
781AD000
B462C000
B582D400
3E01F400
ENDCHAR
STARTCHAR ubreve
ENCODING 365
SWIDTH 553 0
DWIDTH 10 0
BBX 11 14 0 0
BITMAP
002814
003C70
001F90
000000
000000
0B40E0
0B82E0
0B43C0
0F0B80
2E1F40
3C2F00
78AE00
B69E00
7D0F80
ENDCHAR
STARTCHAR Uring
ENCODING 366
SWIDTH 624 0
DWIDTH 11 0
BBX 13 18 0 0
BITMAP
0001B800
00039D00
00071D00
00072C00
01E2E740
01F00B40
01E01E00
02D02D00
03C07C00
0780B800
0F41F400
1E02F000
2D07E000
3C0AE000
781AD000
B472C000
B582D400
3E01F400
ENDCHAR
STARTCHAR uring
ENCODING 367
SWIDTH 553 0
DWIDTH 10 0
BBX 10 14 0 0
BITMAP
000BD0
002CB0
0038A0
001F80
000000
0B40E0
0B82E0
0B43C0
0F0B80
2E1F40
3C2F00
78AE00
B69E00
7D0F80
ENDCHAR
STARTCHAR Uhungarumlaut
ENCODING 368
SWIDTH 624 0
DWIDTH 11 0
BBX 13 18 0 0
BITMAP
00004100
0001C700
00038A00
000A2800
01E00740
01F00B40
01E01E00
02D02D00
03C07C00
0780B800
0F41F400
1E02F000
2D07E000
3C0AE000
781AD000
B462C000
B582D400
3E01F400
ENDCHAR
STARTCHAR uhungarumlaut
ENCODING 369
SWIDTH 553 0
DWIDTH 10 0
BBX 11 14 0 0
BITMAP
000A28
001D78
0038A0
00A280
000000
0B40E0
0B82E0
0B43C0
0F0B80
2E1F40
3C2F00
78AE00
B69E00
7D0F80
ENDCHAR
STARTCHAR Uogonek
ENCODING 370
SWIDTH 684 0
DWIDTH 12 0
BBX 12 18 1 -4
BITMAP
02D00A
02E01E
02D02D
03C07C
0780B8
0F40F4
1E02F0
2D07E0
3C0BD0
B81EC0
F437C0
F09780
F24780
7902F4
0002C0
000B00
001E00
000F80
ENDCHAR
STARTCHAR uogonek
ENCODING 371
SWIDTH 553 0
DWIDTH 10 0
BBX 10 13 0 -4
BITMAP
0B40E0
0B82E0
0B43C0
0F0B80
2E1F40
3C2F00
78AE00
B69E00
7D0F80
000E00
003800
007400
007D00
ENDCHAR
STARTCHAR Wcircumflex
ENCODING 372
SWIDTH 941 0
DWIDTH 17 0
BBX 17 18 1 0
BITMAP
0000020000
00001F8000
0000B6C000
0000405000
2F80000740
7FD0000B80
11D00007C0
03D02D07C0
0780BC0780
0F42F40780
1E0BE00B40
2D1FD00F00
3C77C01D00
74E3803C00
B6C780B400
B74781D000
B903874000
3801F80000
ENDCHAR
STARTCHAR wcircumflex
ENCODING 373
SWIDTH 750 0
DWIDTH 14 0
BBX 14 14 0 0
BITMAP
00002400
0001F800
0007B800
00291C00
00000000
0F404380
0B43C3D0
0B4782D0
0E0F02C0
1D2E0380
2C7D0700
39DD0D00
7F1E7800
380BD000
ENDCHAR
STARTCHAR Ycircumflex
ENCODING 374
SWIDTH 580 0
DWIDTH 10 0
BBX 13 22 0 -5
BITMAP
0000B400
0006F800
001E2D00
02E00740
01F00B00
01E01E00
02D02D00
03C07C00
0B80B800
0F41F400
1E02F000
2D07E000
3C0ED000
781A8000
B4674000
B58B0000
7E1D0000
002C0000
00B40000
01D00000
0B800000
3D000000
ENDCHAR
STARTCHAR ycircumflex
ENCODING 375
SWIDTH 549 0
DWIDTH 10 0
BBX 10 19 0 -5
BITMAP
000180
000BC0
006AD0
01E0E0
000000
0B40A0
0781E0
0B43D0
0F07C0
2E0F80
3D2F40
786B00
799E00
3E2D00
003800
007400
01E000
078000
2E0000
ENDCHAR
STARTCHAR Ydieresis
ENCODING 376
SWIDTH 580 0
DWIDTH 10 0
BBX 13 22 0 -5
BITMAP
001E1E00
002F2F00
00090900
02E00740
01F00B00
01E01E00
02D02D00
03C07C00
0B80B800
0F41F400
1E02F000
2D07E000
3C0ED000
781A8000
B4674000
B58B0000
7E1D0000
002C0000
00B40000
01D00000
0B800000
3D000000
ENDCHAR
STARTCHAR Zacute
ENCODING 377
SWIDTH 501 0
DWIDTH 9 0
BBX 11 18 0 0
BITMAP
000060
0000F0
0002D0
000100
0905B4
0BFFF8
02E5F4
0002D0
000B80
002E00
00B800
02E000
078000
1E0000
380000
B5A900
FFFF40
F90640
ENDCHAR
STARTCHAR zacute
ENCODING 378
SWIDTH 430 0
DWIDTH 8 0
BBX 9 15 0 0
BITMAP
000100
000380
000B80
001E00
003400
000000
0A5B00
06AF00
003D00
01F400
07D000
1F0000
7C0000
BBF400
B96800
ENDCHAR
STARTCHAR Zdotaccent
ENCODING 379
SWIDTH 501 0
DWIDTH 9 0
BBX 11 17 0 0
BITMAP
001F00
001F00
000900
0905B4
0BFFF8
02E5F4
0002D0
000B80
002E00
00B800
02E000
078000
1E0000
380000
B16900
FFFF40
F90640
ENDCHAR
STARTCHAR zdotaccent
ENCODING 380
SWIDTH 430 0
DWIDTH 8 0
BBX 8 14 0 0
BITMAP
0078
00BC
0024
0000
0000
0A5B
06AF
003D
01F4
07D0
1F00
7C00
BBF4
B968
ENDCHAR
STARTCHAR Zcaron
ENCODING 381
SWIDTH 501 0
DWIDTH 9 0
BBX 11 18 0 0
BITMAP
001404
002D78
001F90
000400
0905B4
0BFFF8
02E5F4
0002D0
000B80
002E00
00B800
02E000
078000
1E0000
380000
B5A900
FFFF40
F90640
ENDCHAR
STARTCHAR zcaron
ENCODING 382
SWIDTH 430 0
DWIDTH 8 0
BBX 10 14 0 0
BITMAP
019050
00E2D0
00BE40
006400
000000
0A5B00
06AF00
003D00
01F400
07D000
1F0000
7C0000
BBF400
B96800
ENDCHAR
STARTCHAR florin
ENCODING 402
SWIDTH 466 0
DWIDTH 8 0
BBX 15 19 -4 -5
BITMAP
000006E0
00000E64
00002C38
000074B4
0000B0A0
0001E000
0002FD00
001FFE00
001B8000
00074000
000B4000
000F0000
001E0000
002D0000
002C0000
00380000
24B40000
79E00000
2F800000
ENDCHAR
STARTCHAR AEacute
ENCODING 508
SWIDTH 878 0
DWIDTH 16 0
BBX 18 18 -1 0
BITMAP
0000000900
0000001D00
0000007800
0000005000
00001FAFD0
0000B7F470
0002CBD0B0
00074F42E0
000E1F07D0
002C1E0100
00740E0000
00FBFFF400
07FFFFE000
07802E0000
0B007C0000
1E00B40900
7800787D00
E0001FE000
ENDCHAR
STARTCHAR aeacute
ENCODING 509
SWIDTH 770 0
DWIDTH 14 0
BBX 14 15 0 0
BITMAP
00001000
00003800
0000B800
0001E000
00034000
00000000
00BDEF80
0797E2D0
0F07C2E0
2D0B87D0
3C0F5F80
781FF900
783F0000
389B4640
1E42FE00
ENDCHAR
STARTCHAR Scommaaccent
ENCODING 536
SWIDTH 474 0
DWIDTH 9 0
BBX 10 19 0 -5
BITMAP
006F40
01E1D0
0780A0
0B40E0
0F02E0
0F4BC0
0B8240
07D000
02F000
00F400
207800
B47400
78A000
2F8000
000000
1E0000
0E0000
0D0000
240000
ENDCHAR
STARTCHAR scommaaccent
ENCODING 537
SWIDTH 423 0
DWIDTH 8 0
BBX 8 14 0 -5
BITMAP
02F8
0E1E
1E1D
0F40
0B80
03D0
61E0
B5D0
6F40
0000
2D00
2D00
2800
6000
ENDCHAR
STARTCHAR dotlessj
ENCODING 567
SWIDTH 277 0
DWIDTH 5 0
BBX 8 14 -3 -5
BITMAP
003D
003D
003C
003C
0078
00B4
00F0
00E0
02D0
03C0
0B40
0E00
3800
E000
ENDCHAR
STARTCHAR circumflex
ENCODING 710
SWIDTH 354 0
DWIDTH 6 0
BBX 7 4 0 10
BITMAP
0090
03E0
1EB0
B474
ENDCHAR
STARTCHAR caron
ENCODING 711
SWIDTH 381 0
DWIDTH 7 0
BBX 6 4 1 10
BITMAP
9060
B2D0
7E00
1000
ENDCHAR
STARTCHAR breve
ENCODING 728
SWIDTH 344 0
DWIDTH 6 0
BBX 6 3 1 11
BITMAP
9090
E180
BE00
ENDCHAR
STARTCHAR dotaccent
ENCODING 729
SWIDTH 217 0
DWIDTH 4 0
BBX 3 3 1 11
BITMAP
78
B8
20
ENDCHAR
STARTCHAR ring
ENCODING 730
SWIDTH 402 0
DWIDTH 7 0
BBX 6 5 2 9
BITMAP
1F80
75C0
B1D0
B2C0
3E00
ENDCHAR
STARTCHAR ogonek
ENCODING 731
SWIDTH 311 0
DWIDTH 6 0
BBX 4 6 1 -4
BITMAP
01
0D
34
B0
E0
F8
ENDCHAR
STARTCHAR tilde
ENCODING 732
SWIDTH 397 0
DWIDTH 7 0
BBX 7 2 1 12
BITMAP
2E08
97E4
ENDCHAR
STARTCHAR hungarumlaut
ENCODING 733
SWIDTH 392 0
DWIDTH 7 0
BBX 8 5 0 10
BITMAP
0004
071D
0E2C
2C74
6190
ENDCHAR
STARTCHAR pi
ENCODING 960
SWIDTH 640 0
DWIDTH 12 0
BBX 12 9 0 0
BITMAP
1BFFFE
10D6E4
01C2C0
038380
074780
0E0B40
2D0B00
B80B90
E00780
ENDCHAR
STARTCHAR uni1E02
ENCODING 7682
SWIDTH 551 0
DWIDTH 10 0
BBX 10 17 1 0
BITMAP
001E00
002F00
000900
0AFE40
7E42D0
2640E0
0B81E0
1F02E0
2E07C0
3C6F00
7FF800
B52D00
F00E00
E01E00
D02D00
E1B400
7F8000
ENDCHAR
STARTCHAR uni1E03
ENCODING 7683
SWIDTH 525 0
DWIDTH 9 0
BBX 10 15 0 0
BITMAP
01D000
01D1E0
02D2F0
03C090
078000
074000
0B6E00
0ED780
1F4780
2E0780
3C0B80
780F00
742E00
39B800
1F9000
ENDCHAR
STARTCHAR uni1E0A
ENCODING 7690
SWIDTH 630 0
DWIDTH 11 0
BBX 11 17 1 0
BITMAP
000B40
001F40
000500
1BFE40
3E42D0
0140B4
07C078
0B4078
1F0078
2E00B4
3C00F0
7802E0
B407C0
F00F40
F07D00
E2F400
7E4000
ENDCHAR
STARTCHAR uni1E0B
ENCODING 7691
SWIDTH 557 0
DWIDTH 10 0
BBX 12 15 0 0
BITMAP
00000E
01E02D
02F03C
009078
0000B4
0000F0
00BEE0
02D3D0
0B43C0
1E0780
3C0B40
3C1F40
782F00
3CAF00
1F87D0
ENDCHAR
STARTCHAR uni1E1E
ENCODING 7710
SWIDTH 518 0
DWIDTH 9 0
BBX 11 17 0 0
BITMAP
0002D0
0003E0
000180
0BE958
2FFFF8
382D50
143800
007400
00B400
00FA40
07FF80
07D000
07C000
0B4000
0F0000
2D0000
740000
ENDCHAR
STARTCHAR uni1E1F
ENCODING 7711
SWIDTH 393 0
DWIDTH 7 0
BBX 11 20 -1 -2
BITMAP
000780
000B80
000640
0006E0
000E38
002D78
003CB4
007850
00B400
00F000
07FF40
0AD000
03C000
078000
074000
0B0000
0E0000
2D0000
3C0000
740000
ENDCHAR
STARTCHAR uni1E40
ENCODING 7744
SWIDTH 931 0
DWIDTH 17 0
BBX 19 17 -2 0
BITMAP
0000000B40
0000000F40
0000000500
00001F0078
0000BF02F8
0001DE07B4
00076D0DB0
000A3C29E0
001D7876D0
003878A3C0
0074B4D3C0
00E0F28780
02C0F34B40
0380EA0F00
0B00EC0F00
2D00F80B10
B400A007E0
ENDCHAR
STARTCHAR uni1E41
ENCODING 7745
SWIDTH 814 0
DWIDTH 15 0
BBX 14 14 0 0
BITMAP
0000B400
0001F400
00005000
00000000
00000000
0B4782D0
0B6FCBF0
0B75E8E0
0FD2E2D0
1F47C3C0
2D0B4740
781E0B00
B42D0B90
A0280780
ENDCHAR
STARTCHAR uni1E56
ENCODING 7766
SWIDTH 553 0
DWIDTH 10 0
BBX 12 17 -1 0
BITMAP
000078
0000BC
000024
006FE4
02F41D
03C00B
01280B
00780F
00B42E
00F0BC
02E7E0
03FE40
078000
0B4000
1E0000
3C0000
740000
ENDCHAR
STARTCHAR uni1E57
ENCODING 7767
SWIDTH 550 0
DWIDTH 10 0
BBX 11 19 -1 -5
BITMAP
000B80
000F80
000600
000000
000000
078BD0
03E8F0
03E0B4
07C0F0
0B40F0
0B02D0
0F0780
1F5F00
2DF800
380000
780000
B40000
F00000
D00000
ENDCHAR
STARTCHAR uni1E60
ENCODING 7776
SWIDTH 474 0
DWIDTH 9 0
BBX 10 17 0 0
BITMAP
000780
000B80
000600
006F40
01E1D0
0780A0
0B40E0
0F02E0
0F4BC0
0B8240
07D000
02F000
00F400
207800
B47400
78A000
2F8000
ENDCHAR
STARTCHAR uni1E61
ENCODING 7777
SWIDTH 423 0
DWIDTH 8 0
BBX 8 14 0 0
BITMAP
002D
003D
0014
0000
0000
02F8
0E1E
1E1D
0F40
0B80
03D0
61E0
B5D0
6F40
ENDCHAR
STARTCHAR uni1E6A
ENCODING 7786
SWIDTH 430 0
DWIDTH 8 0
BBX 11 17 0 0
BITMAP
000780
000B80
000200
1BE508
3FFFF4
782D00
103C00
007800
00B400
00F000
01E000
02D000
03C000
078000
0B0000
1D0000
380000
ENDCHAR
STARTCHAR uni1E6B
ENCODING 7787
SWIDTH 358 0
DWIDTH 6 0
BBX 7 14 1 0
BITMAP
00F0
01F4
0090
03C0
0780
3FF4
1E00
2D00
3C00
7800
7400
B040
BA80
3E00
ENDCHAR
STARTCHAR Wgrave
ENCODING 7808
SWIDTH 941 0
DWIDTH 17 0
BBX 17 18 1 0
BITMAP
0000100000
0000780000
00003D0000
0000050000
2F80000740
7FD0000B80
11D00007C0
03C02D07C0
0780B80780
0F42F00780
1E0BE00B40
2D2ED00F00
3877C01D00
74E3803C00
B28780B400
B70782D000
BD03DB4000
3801F80000
ENDCHAR
STARTCHAR wgrave
ENCODING 7809
SWIDTH 750 0
DWIDTH 14 0
BBX 14 14 0 0
BITMAP
00028000
00078000
00038000
0001C000
00000000
0F404380
0B43C3D0
0B4782D0
0E0F02C0
1D2E0380
2C7D0700
39DD0D00
7F1E7800
380BD000
ENDCHAR
STARTCHAR Wacute
ENCODING 7810
SWIDTH 941 0
DWIDTH 17 0
BBX 17 18 1 0
BITMAP
0000018000
000002D000
0000078000
0000050000
2F80000740
7FD0000B80
11D00007C0
03D02D07C0
0780BC0780
0F42F40780
1E0BE00B40
2D1FD00F00
3C77C01D00
74E3803C00
B6C780B400
B74781D000
B903874000
3801F80000
ENDCHAR
STARTCHAR wacute
ENCODING 7811
SWIDTH 750 0
DWIDTH 14 0
BBX 14 15 0 0
BITMAP
00001000
00007400
0000B400
0001E000
00074000
00000000
0F404380
0B43C3D0
0B4782D0
0E0F02C0
1D2E0380
2C7D0700
39DD0D00
7F1E7800
380BD000
ENDCHAR
STARTCHAR Wdieresis
ENCODING 7812
SWIDTH 941 0
DWIDTH 17 0
BBX 17 17 1 0
BITMAP
0001F1F000
0001F1F000
0000909000
2F80000740
7FD0000B80
11D00007C0
03C02D07C0
0780B80780
0F42F00780
1E0BE00B40
2D2ED00F00
3877C01D00
74E3803C00
B28780B400
B70782D000
BD03DB4000
3801F80000
ENDCHAR
STARTCHAR wdieresis
ENCODING 7813
SWIDTH 750 0
DWIDTH 14 0
BBX 14 14 0 0
BITMAP
001E1E00
002E2F00
00080900
00000000
00000000
0F404380
0B43C3D0
0B4782D0
0E0F02C0
1D2E0380
2C7D0700
39DD0D00
7F1E7800
380BD000
ENDCHAR
STARTCHAR Ygrave
ENCODING 7922
SWIDTH 580 0
DWIDTH 10 0
BBX 13 23 0 -5
BITMAP
00010000
000B4000
00078000
0001D000
02E00740
01F00B00
01E01E00
02D02D00
03C07C00
0B80B800
0F41F400
1E02F000
2D07E000
3C0ED000
781A8000
B4674000
B58B0000
7E1D0000
002C0000
00B40000
01D00000
0B800000
3D000000
ENDCHAR
STARTCHAR ygrave
ENCODING 7923
SWIDTH 549 0
DWIDTH 10 0
BBX 10 19 0 -5
BITMAP
001C00
002C00
002D00
000900
000000
0B40A0
0781E0
0B43D0
0F07C0
2E0F80
3D2F40
786B00
799E00
3E2D00
003800
007400
01E000
078000
2E0000
ENDCHAR
STARTCHAR endash
ENCODING 8211
SWIDTH 751 0
DWIDTH 14 0
BBX 11 1 1 5
BITMAP
7FFFFC
ENDCHAR
STARTCHAR emdash
ENCODING 8212
SWIDTH 1066 0
DWIDTH 19 0
BBX 16 1 2 5
BITMAP
FFFFFFFE
ENDCHAR
STARTCHAR quoteleft
ENCODING 8216
SWIDTH 268 0
DWIDTH 5 0
BBX 4 5 2 10
BITMAP
05
2C
74
78
78
ENDCHAR
STARTCHAR quoteright
ENCODING 8217
SWIDTH 268 0
DWIDTH 5 0
BBX 4 5 2 10
BITMAP
04
2E
1E
1D
64
ENDCHAR
STARTCHAR quotesinglbase
ENCODING 8218
SWIDTH 268 0
DWIDTH 5 0
BBX 3 5 0 -2
BITMAP
14
3C
2C
38
A0
ENDCHAR
STARTCHAR quotedblleft
ENCODING 8220
SWIDTH 485 0
DWIDTH 9 0
BBX 8 5 2 10
BITMAP
0105
1D28
38B0
78F0
78B4
ENDCHAR
STARTCHAR quotedblright
ENCODING 8221
SWIDTH 480 0
DWIDTH 9 0
BBX 7 5 3 10
BITMAP
1410
7CB4
3C74
74A0
9280
ENDCHAR
STARTCHAR quotedblbase
ENCODING 8222
SWIDTH 463 0
DWIDTH 8 0
BBX 7 5 0 -2
BITMAP
1410
3CB8
2C78
3870
A1D0
ENDCHAR
STARTCHAR dagger
ENCODING 8224
SWIDTH 488 0
DWIDTH 9 0
BBX 8 14 1 0
BITMAP
00B0
00F4
01F0
2AFB
1BE9
03D0
07C0
0780
0B00
0E00
1D00
2800
3400
6000
ENDCHAR
STARTCHAR daggerdbl
ENCODING 8225
SWIDTH 488 0
DWIDTH 9 0
BBX 8 14 1 0
BITMAP
00B0
00F4
01F0
2AFF
17E4
03D0
0780
1B94
7FE4
0E00
1D00
2800
3400
6000
ENDCHAR
STARTCHAR bullet
ENCODING 8226
SWIDTH 437 0
DWIDTH 8 0
BBX 5 4 2 4
BITMAP
6E00
FF40
FF40
7E00
ENDCHAR
STARTCHAR ellipsis
ENCODING 8230
SWIDTH 810 0
DWIDTH 15 0
BBX 13 3 0 0
BITMAP
7C1E0B80
BD2F0BC0
24090640
ENDCHAR
STARTCHAR perthousand
ENCODING 8240
SWIDTH 1184 0
DWIDTH 21 0
BBX 19 14 1 0
BITMAP
0BD01D0000
2DB0380000
78B0B00000
B4B1D00000
B0E3800000
72DB400000
2F5E000000
002C000000
00747E02F4
00E1D74F2C
02C3875D2C
07474B6C38
0E075E2CB4
2802F80B90
ENDCHAR
STARTCHAR guilsinglleft
ENCODING 8249
SWIDTH 413 0
DWIDTH 7 0
BBX 6 7 1 2
BITMAP
0090
0780
2E00
B400
3C00
1F00
0740
ENDCHAR
STARTCHAR guilsinglright
ENCODING 8250
SWIDTH 416 0
DWIDTH 8 0
BBX 6 7 1 2
BITMAP
3800
1E00
0780
02D0
0B40
7800
9000
ENDCHAR
STARTCHAR fraction
ENCODING 8260
SWIDTH 580 0
DWIDTH 10 0
BBX 10 15 0 0
BITMAP
000010
0000B0
0001D0
000380
000B00
001D00
002C00
007400
00E000
02C000
078000
0B0000
1D0000
380000
700000
ENDCHAR
STARTCHAR Euro
ENCODING 8364
SWIDTH 622 0
DWIDTH 11 0
BBX 11 14 1 0
BITMAP
0006E0
002E28
00B42C
01E078
03C0F4
0B8050
2FF800
1E0000
1E0000
BFE400
2E0000
1E0100
0F4740
06F900
ENDCHAR
STARTCHAR trademark
ENCODING 8482
SWIDTH 1084 0
DWIDTH 20 0
BBX 15 8 3 6
BITMAP
6A946024
AFA5F4F4
0A02B2B4
1D07B770
2C09A9B0
281CBCB0
2C34B4B0
08501020
ENDCHAR
STARTCHAR Omega
ENCODING 8486
SWIDTH 839 0
DWIDTH 15 0
BBX 14 14 1 0
BITMAP
006A4000
07E6F400
1F002D00
3D000F00
78000B80
B8000780
B80007C0
B8000780
78000B80
3C000F00
1E001E00
0B403800
E6C0A6D0
BFE1FFC0
ENDCHAR
STARTCHAR partialdiff
ENCODING 8706
SWIDTH 580 0
DWIDTH 10 0
BBX 11 15 0 0
BITMAP
000640
007ED0
00B470
006074
000074
01BEB4
07D2F0
1F41F0
2E02E0
3C03D0
780780
780F40
742E00
38B800
1FD000
ENDCHAR
STARTCHAR Delta
ENCODING 8710
SWIDTH 663 0
DWIDTH 12 0
BBX 12 11 0 0
BITMAP
001800
003E00
00AF00
00D740
0283C0
0342D0
0A00E0
1C00B4
280038
70002D
BFFFFD
ENDCHAR
STARTCHAR product
ENCODING 8719
SWIDTH 667 0
DWIDTH 12 0
BBX 10 16 1 -2
BITMAP
1AAA90
B955E0
B401E0
B401E0
B401E0
B401E0
B401E0
B401E0
B401E0
B401E0
B401E0
B401E0
B401E0
B401E0
B401E0
500040
ENDCHAR
STARTCHAR summation
ENCODING 8721
SWIDTH 677 0
DWIDTH 12 0
BBX 11 16 0 -2
BITMAP
06AAA8
1F9554
0F8000
07D000
02F000
00F800
007D00
002E00
002D00
007800
01E000
038000
0F0000
2D0000
7FFFF4
2AAAA0
ENDCHAR
STARTCHAR minus
ENCODING 8722
SWIDTH 617 0
DWIDTH 11 0
BBX 9 2 1 6
BITMAP
155540
BFFF80
ENDCHAR
STARTCHAR radical
ENCODING 8730
SWIDTH 709 0
DWIDTH 13 0
BBX 14 17 0 0
BITMAP
00000030
000000B0
000000F0
000002D0
000003C0
00000B40
00000E00
00002C00
0A407800
2F80B000
6781D000
03C28000
02D74000
01DA0000
01EC0000
00F80000
00B00000
ENDCHAR
STARTCHAR infinity
ENCODING 8734
SWIDTH 681 0
DWIDTH 12 0
BBX 11 6 1 4
BITMAP
040140
7F9FF0
B5FD28
D0F428
E7F9B4
7F4BE0
ENDCHAR
STARTCHAR integral
ENCODING 8747
SWIDTH 583 0
DWIDTH 11 0
BBX 15 21 -2 -4
BITMAP
000002E0
00000F64
00002D28
000038B4
0000B4A0
0000F000
0001E000
0002D000
0003C000
00078000
000B4000
000F0000
000F0000
001E0000
002D0000
043C0000
3C740000
74F00000
62D00000
3B800000
05000000
ENDCHAR
STARTCHAR approxequal
ENCODING 8776
SWIDTH 671 0
DWIDTH 12 0
BBX 11 8 1 2
BITMAP
0BE024
2AF870
607FD0
000900
1B8020
7BF0A0
90FF80
802900
ENDCHAR
STARTCHAR notequal
ENCODING 8800
SWIDTH 617 0
DWIDTH 11 0
BBX 10 12 1 1
BITMAP
000040
000740
000A00
001D00
7FFFD0
15B500
01D000
6BEA80
6FAA80
0E0000
280000
700000
ENDCHAR
STARTCHAR lessequal
ENCODING 8804
SWIDTH 704 0
DWIDTH 13 0
BBX 9 12 1 0
BITMAP
0001C0
001F40
01B800
1B8000
BD0000
7D0000
0BD000
00B800
001B80
000140
155540
BFFFC0
ENDCHAR
STARTCHAR greaterequal
ENCODING 8805
SWIDTH 617 0
DWIDTH 11 0
BBX 9 12 1 0
BITMAP
A40000
2E4000
06E000
007E00
000BC0
002E40
01F400
1F4000
B80000
400000
155540
FFFF80
ENDCHAR
STARTCHAR lozenge
ENCODING 9674
SWIDTH 580 0
DWIDTH 10 0
BBX 9 14 1 0
BITMAP
018000
03D000
0BF000
1D7400
282C00
700E00
E00740
D00340
B00B00
381D00
1D2800
0A7000
07E000
02C000
ENDCHAR
STARTCHAR commaaccent
ENCODING 63171
SWIDTH 250 0
DWIDTH 5 0
BBX 3 4 1 -5
BITMAP
B4
74
A0
80
ENDCHAR
STARTCHAR ff
ENCODING 64256
SWIDTH 773 0
DWIDTH 14 0
BBX 18 17 -1 -2
BITMAP
0006E01B80
000E7839D0
002D38B1D0
003CB4E3D0
007861D140
00B402D000
00F003C000
06FAFFF900
1BE50B4000
03C00F0000
03801E0000
07402D0000
0B003C0000
0E00780000
1D00B40000
3C00F00000
7401D00000
ENDCHAR
STARTCHAR fi
ENCODING 64257
SWIDTH 623 0
DWIDTH 11 0
BBX 13 18 -1 -3
BITMAP
0001B900
00079740
000E0380
002D0780
00780F40
00B40100
01FBFD00
0BE42E00
06D02D00
03C03C00
03807800
0740B000
0B00E000
0F01E000
1E00B800
2C000000
78000000
10000000
ENDCHAR
STARTCHAR fl
ENCODING 64258
SWIDTH 637 0
DWIDTH 11 0
BBX 13 18 -1 -3
BITMAP
0001BE00
00079780
000E03C0
002D0380
00380780
00740B40
00B00F00
01FF5E00
0BFF6D00
06D03C00
03C07800
0780B400
0B40F000
0F00F000
1E007800
2D000000
78000000
10000000
ENDCHAR
STARTCHAR .notdef
ENCODING -1
SWIDTH 896 0
DWIDTH 16 0
BBX 17 16 1 0
BITMAP
006FFFFE40
00FFFFFF80
01FFFFFF40
02FFFFFF00
03F4F47E00
07F0D2FD00
0BF08BFC00
0FF42FFC00
0FF47FF800
1FF47FF400
2FD12FF000
3F4E06E000
7E2F47D000
BFFFFFC000
FFFFFF8000
FFFFFF4000
ENDCHAR
ENDFONT
